<svg width="224" height="86" viewBox="0 0 224 86" fill="none" xmlns="http://www.w3.org/2000/svg">
<rect width="224" height="86" rx="8" fill="black"/>
<path d="M48.122 31.8519C46.078 31.8519 42.914 29.5279 39.582 29.6119C35.186 29.6679 31.154 32.1599 28.886 36.1079C24.322 44.0319 27.71 55.7359 32.162 62.1759C34.346 65.3119 36.922 68.8399 40.338 68.7279C43.614 68.5879 44.846 66.5999 48.822 66.5999C52.77 66.5999 53.89 68.7279 57.362 68.6439C60.89 68.5879 63.13 65.4519 65.286 62.2879C67.778 58.6479 68.814 55.1199 68.87 54.9239C68.786 54.8959 62.01 52.2919 61.926 44.4519C61.87 37.8999 67.274 34.7639 67.526 34.6239C64.446 30.1159 59.714 29.6119 58.062 29.4999C53.75 29.1639 50.138 31.8519 48.122 31.8519ZM55.402 25.2439C57.222 23.0599 58.426 20.0079 58.09 16.9839C55.486 17.0959 52.35 18.7199 50.474 20.9039C48.794 22.8359 47.338 25.9439 47.73 28.9119C50.614 29.1359 53.582 27.4279 55.402 25.2439Z" fill="white"/>
<path d="M82.368 33H85.788C88.476 33 90.288 31.272 90.288 28.8C90.288 26.328 88.476 24.6 85.788 24.6H82.368V33ZM83.256 32.232V25.368H85.74C87.972 25.368 89.412 26.784 89.412 28.8C89.412 30.816 87.972 32.232 85.74 32.232H83.256ZM94.6821 33.06C96.5301 33.06 97.8861 31.716 97.8861 29.844C97.8861 27.972 96.5301 26.64 94.6821 26.64C92.8341 26.64 91.4661 27.972 91.4661 29.844C91.4661 31.716 92.8341 33.06 94.6821 33.06ZM94.6821 32.304C93.3381 32.304 92.3301 31.32 92.3301 29.844C92.3301 28.368 93.3381 27.384 94.6821 27.384C96.0261 27.384 97.0221 28.368 97.0221 29.844C97.0221 31.32 96.0261 32.304 94.6821 32.304ZM107.934 26.688L105.93 32.052L103.914 26.688H103.182L101.154 32.052L99.1737 26.688H98.3577L100.734 33H101.538L103.53 27.828L105.522 33H106.326L108.714 26.688H107.934ZM113.213 26.64C112.121 26.64 111.269 27.084 110.813 27.852V26.688H109.997V33H110.849V29.688C110.849 28.248 111.701 27.408 113.057 27.408C114.257 27.408 114.953 28.092 114.953 29.424V33H115.805V29.34C115.805 27.528 114.749 26.64 113.213 26.64ZM118.118 33H118.97V24.096H118.118V33ZM123.92 33.06C125.768 33.06 127.124 31.716 127.124 29.844C127.124 27.972 125.768 26.64 123.92 26.64C122.072 26.64 120.704 27.972 120.704 29.844C120.704 31.716 122.072 33.06 123.92 33.06ZM123.92 32.304C122.576 32.304 121.568 31.32 121.568 29.844C121.568 28.368 122.576 27.384 123.92 27.384C125.264 27.384 126.26 28.368 126.26 29.844C126.26 31.32 125.264 32.304 123.92 32.304ZM131.037 26.64C130.041 26.64 129.105 26.952 128.469 27.492L128.853 28.128C129.369 27.672 130.137 27.384 130.953 27.384C132.129 27.384 132.741 27.972 132.741 29.052V29.436H130.737C128.925 29.436 128.301 30.252 128.301 31.224C128.301 32.316 129.177 33.06 130.605 33.06C131.649 33.06 132.393 32.664 132.777 32.016V33H133.593V29.088C133.593 27.456 132.669 26.64 131.037 26.64ZM130.737 32.388C129.729 32.388 129.141 31.932 129.141 31.2C129.141 30.552 129.537 30.072 130.761 30.072H132.741V31.104C132.405 31.932 131.697 32.388 130.737 32.388ZM140.838 24.096V27.888C140.31 27.072 139.446 26.64 138.438 26.64C136.638 26.64 135.294 27.936 135.294 29.844C135.294 31.752 136.638 33.06 138.438 33.06C139.482 33.06 140.358 32.604 140.874 31.752V33H141.69V24.096H140.838ZM138.51 32.304C137.166 32.304 136.158 31.32 136.158 29.844C136.158 28.368 137.166 27.384 138.51 27.384C139.842 27.384 140.85 28.368 140.85 29.844C140.85 31.32 139.842 32.304 138.51 32.304ZM149.784 33.06C151.632 33.06 152.988 31.716 152.988 29.844C152.988 27.972 151.632 26.64 149.784 26.64C147.936 26.64 146.568 27.972 146.568 29.844C146.568 31.716 147.936 33.06 149.784 33.06ZM149.784 32.304C148.44 32.304 147.432 31.32 147.432 29.844C147.432 28.368 148.44 27.384 149.784 27.384C151.128 27.384 152.124 28.368 152.124 29.844C152.124 31.32 151.128 32.304 149.784 32.304ZM157.943 26.64C156.851 26.64 155.999 27.084 155.543 27.852V26.688H154.727V33H155.579V29.688C155.579 28.248 156.431 27.408 157.787 27.408C158.987 27.408 159.683 28.092 159.683 29.424V33H160.535V29.34C160.535 27.528 159.479 26.64 157.943 26.64ZM169.013 32.004C168.773 32.22 168.425 32.328 168.077 32.328C167.369 32.328 166.985 31.92 166.985 31.176V27.408H168.905V26.688H166.985V25.308H166.133V26.688H165.005V27.408H166.133V31.224C166.133 32.388 166.793 33.06 167.981 33.06C168.473 33.06 168.977 32.916 169.313 32.616L169.013 32.004ZM174.08 26.64C173.012 26.64 172.184 27.06 171.716 27.792V24.096H170.864V33H171.716V29.688C171.716 28.248 172.568 27.408 173.924 27.408C175.124 27.408 175.82 28.092 175.82 29.424V33H176.672V29.34C176.672 27.528 175.616 26.64 174.08 26.64ZM184.516 29.844C184.516 27.948 183.232 26.64 181.456 26.64C179.68 26.64 178.372 27.972 178.372 29.844C178.372 31.716 179.716 33.06 181.684 33.06C182.68 33.06 183.556 32.7 184.12 32.028L183.64 31.476C183.16 32.028 182.476 32.304 181.708 32.304C180.328 32.304 179.32 31.428 179.224 30.108H184.504C184.504 30.012 184.516 29.916 184.516 29.844ZM181.456 27.372C182.692 27.372 183.592 28.236 183.7 29.472H179.224C179.332 28.236 180.232 27.372 181.456 27.372Z" fill="white"/>
<path d="M94.224 54.8H85.296L83.448 59H80.976L88.584 42.2H90.96L98.592 59H96.072L94.224 54.8ZM93.384 52.88L89.76 44.648L86.136 52.88H93.384ZM107.506 46.16C108.738 46.16 109.842 46.432 110.818 46.976C111.794 47.52 112.554 48.28 113.098 49.256C113.658 50.232 113.938 51.36 113.938 52.64C113.938 53.92 113.658 55.056 113.098 56.048C112.554 57.024 111.794 57.784 110.818 58.328C109.842 58.872 108.738 59.144 107.506 59.144C106.594 59.144 105.754 58.968 104.986 58.616C104.234 58.264 103.594 57.752 103.066 57.08V63.656H100.762V46.28H102.97V48.296C103.482 47.592 104.13 47.064 104.914 46.712C105.698 46.344 106.562 46.16 107.506 46.16ZM107.314 57.128C108.13 57.128 108.858 56.944 109.498 56.576C110.154 56.192 110.666 55.664 111.034 54.992C111.418 54.304 111.61 53.52 111.61 52.64C111.61 51.76 111.418 50.984 111.034 50.312C110.666 49.624 110.154 49.096 109.498 48.728C108.858 48.36 108.13 48.176 107.314 48.176C106.514 48.176 105.786 48.368 105.13 48.752C104.49 49.12 103.978 49.64 103.594 50.312C103.226 50.984 103.042 51.76 103.042 52.64C103.042 53.52 103.226 54.304 103.594 54.992C103.962 55.664 104.474 56.192 105.13 56.576C105.786 56.944 106.514 57.128 107.314 57.128ZM123.866 46.16C125.098 46.16 126.202 46.432 127.178 46.976C128.154 47.52 128.914 48.28 129.458 49.256C130.018 50.232 130.298 51.36 130.298 52.64C130.298 53.92 130.018 55.056 129.458 56.048C128.914 57.024 128.154 57.784 127.178 58.328C126.202 58.872 125.098 59.144 123.866 59.144C122.954 59.144 122.114 58.968 121.346 58.616C120.594 58.264 119.954 57.752 119.426 57.08V63.656H117.122V46.28H119.33V48.296C119.842 47.592 120.49 47.064 121.273 46.712C122.058 46.344 122.922 46.16 123.866 46.16ZM123.674 57.128C124.49 57.128 125.218 56.944 125.858 56.576C126.514 56.192 127.026 55.664 127.394 54.992C127.778 54.304 127.97 53.52 127.97 52.64C127.97 51.76 127.778 50.984 127.394 50.312C127.026 49.624 126.514 49.096 125.858 48.728C125.218 48.36 124.49 48.176 123.674 48.176C122.874 48.176 122.146 48.368 121.49 48.752C120.85 49.12 120.338 49.64 119.954 50.312C119.586 50.984 119.402 51.76 119.402 52.64C119.402 53.52 119.586 54.304 119.954 54.992C120.322 55.664 120.834 56.192 121.49 56.576C122.146 56.944 122.874 57.128 123.674 57.128ZM145.158 59.192C143.894 59.192 142.67 59 141.486 58.616C140.318 58.216 139.398 57.704 138.726 57.08L139.614 55.208C140.254 55.784 141.07 56.256 142.062 56.624C143.07 56.976 144.102 57.152 145.158 57.152C146.55 57.152 147.59 56.92 148.278 56.456C148.966 55.976 149.31 55.344 149.31 54.56C149.31 53.984 149.118 53.52 148.734 53.168C148.366 52.8 147.902 52.52 147.342 52.328C146.798 52.136 146.022 51.92 145.014 51.68C143.75 51.376 142.726 51.072 141.942 50.768C141.174 50.464 140.51 50 139.95 49.376C139.406 48.736 139.134 47.88 139.134 46.808C139.134 45.912 139.366 45.104 139.83 44.384C140.31 43.664 141.03 43.088 141.99 42.656C142.95 42.224 144.142 42.008 145.566 42.008C146.558 42.008 147.534 42.136 148.494 42.392C149.454 42.648 150.278 43.016 150.966 43.496L150.174 45.416C149.47 44.968 148.718 44.632 147.918 44.408C147.118 44.168 146.334 44.048 145.566 44.048C144.206 44.048 143.182 44.296 142.494 44.792C141.822 45.288 141.486 45.928 141.486 46.712C141.486 47.288 141.678 47.76 142.062 48.128C142.446 48.48 142.918 48.76 143.478 48.968C144.054 49.16 144.83 49.368 145.806 49.592C147.07 49.896 148.086 50.2 148.854 50.504C149.622 50.808 150.278 51.272 150.822 51.896C151.382 52.52 151.662 53.36 151.662 54.416C151.662 55.296 151.422 56.104 150.942 56.84C150.462 57.56 149.734 58.136 148.758 58.568C147.782 58.984 146.582 59.192 145.158 59.192ZM161.984 58.256C161.648 58.544 161.232 58.768 160.736 58.928C160.24 59.072 159.728 59.144 159.2 59.144C157.92 59.144 156.928 58.8 156.224 58.112C155.52 57.424 155.168 56.44 155.168 55.16V48.176H153.008V46.28H155.168V43.496H157.472V46.28H161.12V48.176H157.472V55.064C157.472 55.752 157.64 56.28 157.976 56.648C158.328 57.016 158.824 57.2 159.464 57.2C160.168 57.2 160.768 57 161.264 56.6L161.984 58.256ZM169.796 59.144C168.532 59.144 167.396 58.864 166.388 58.304C165.38 57.744 164.588 56.976 164.012 56C163.452 55.008 163.172 53.888 163.172 52.64C163.172 51.392 163.452 50.28 164.012 49.304C164.588 48.312 165.38 47.544 166.388 47C167.396 46.44 168.532 46.16 169.796 46.16C171.06 46.16 172.188 46.44 173.18 47C174.188 47.544 174.972 48.312 175.532 49.304C176.108 50.28 176.396 51.392 176.396 52.64C176.396 53.888 176.108 55.008 175.532 56C174.972 56.976 174.188 57.744 173.18 58.304C172.188 58.864 171.06 59.144 169.796 59.144ZM169.796 57.128C170.612 57.128 171.34 56.944 171.98 56.576C172.636 56.192 173.148 55.664 173.516 54.992C173.884 54.304 174.068 53.52 174.068 52.64C174.068 51.76 173.884 50.984 173.516 50.312C173.148 49.624 172.636 49.096 171.98 48.728C171.34 48.36 170.612 48.176 169.796 48.176C168.98 48.176 168.244 48.36 167.588 48.728C166.948 49.096 166.436 49.624 166.052 50.312C165.684 50.984 165.5 51.76 165.5 52.64C165.5 53.52 165.684 54.304 166.052 54.992C166.436 55.664 166.948 56.192 167.588 56.576C168.244 56.944 168.98 57.128 169.796 57.128ZM181.79 48.416C182.19 47.68 182.782 47.12 183.566 46.736C184.35 46.352 185.302 46.16 186.422 46.16V48.392C186.294 48.376 186.118 48.368 185.894 48.368C184.646 48.368 183.662 48.744 182.942 49.496C182.238 50.232 181.886 51.288 181.886 52.664V59H179.582V46.28H181.79V48.416ZM200.641 52.712C200.641 52.888 200.625 53.12 200.593 53.408H190.273C190.417 54.528 190.905 55.432 191.737 56.12C192.585 56.792 193.633 57.128 194.881 57.128C196.401 57.128 197.625 56.616 198.553 55.592L199.825 57.08C199.249 57.752 198.529 58.264 197.665 58.616C196.817 58.968 195.865 59.144 194.809 59.144C193.465 59.144 192.273 58.872 191.233 58.328C190.193 57.768 189.385 56.992 188.809 56C188.249 55.008 187.969 53.888 187.969 52.64C187.969 51.408 188.241 50.296 188.785 49.304C189.345 48.312 190.105 47.544 191.065 47C192.041 46.44 193.137 46.16 194.353 46.16C195.569 46.16 196.649 46.44 197.593 47C198.553 47.544 199.297 48.312 199.825 49.304C200.369 50.296 200.641 51.432 200.641 52.712ZM194.353 48.104C193.249 48.104 192.321 48.44 191.569 49.112C190.833 49.784 190.401 50.664 190.273 51.752H198.433C198.305 50.68 197.865 49.808 197.113 49.136C196.377 48.448 195.457 48.104 194.353 48.104Z" fill="white"/>
</svg>
