<svg width="18" height="22" viewBox="0 0 18 22" fill="none" xmlns="http://www.w3.org/2000/svg">
<path d="M1.45078 9.9969C1.90579 8.97281 2.56724 8.05364 3.39375 7.2969L4.07578 6.67111C4.09894 6.65045 4.12681 6.63578 4.15696 6.62841C4.1871 6.62103 4.2186 6.62116 4.24868 6.6288C4.27877 6.63644 4.30651 6.65134 4.32949 6.6722C4.35247 6.69307 4.36997 6.71925 4.38047 6.74846L4.68516 7.62268C4.875 8.17111 5.22422 8.73127 5.71875 9.28205C5.75156 9.31721 5.78906 9.32658 5.81484 9.32893C5.84062 9.33127 5.88047 9.32658 5.91563 9.29377C5.94844 9.26565 5.96484 9.22346 5.9625 9.18127C5.87578 7.77033 6.29766 6.17893 7.22109 4.4469C7.98516 3.00783 9.04688 1.88518 10.3734 1.10236L11.3414 0.532834C11.468 0.457834 11.6297 0.556271 11.6227 0.703927L11.5711 1.82893C11.5359 2.59768 11.625 3.27736 11.8359 3.84221C12.0938 4.53361 12.4641 5.1758 12.9375 5.75236C13.267 6.15306 13.6404 6.51549 14.0508 6.83283C15.0391 7.5926 15.8428 8.56612 16.4016 9.68049C16.959 10.8046 17.2493 12.0422 17.25 13.2969C17.25 14.4031 17.032 15.4742 16.6008 16.4844C16.1844 17.457 15.5835 18.3396 14.8312 19.0836C14.0719 19.8336 13.1906 20.4242 12.2086 20.8344C11.1914 21.261 10.1133 21.4766 9 21.4766C7.88672 21.4766 6.80859 21.261 5.79141 20.8367C4.81179 20.429 3.92099 19.8343 3.16875 19.086C2.40938 18.336 1.81406 17.4594 1.39922 16.4867C0.968618 15.4793 0.747723 14.3948 0.75 13.2992C0.75 12.1555 0.984375 11.0446 1.45078 9.9969ZM4.28906 17.9492C5.54766 19.1961 7.21875 19.8805 9 19.8805C10.7813 19.8805 12.4523 19.1961 13.7109 17.9492C14.9648 16.7047 15.6563 15.0547 15.6563 13.2992C15.6563 12.2797 15.4266 11.3024 14.9742 10.393C14.5336 9.50471 13.8773 8.71018 13.0805 8.09846C12.5723 7.70985 12.1113 7.26306 11.707 6.76721C11.1211 6.05236 10.6617 5.25549 10.343 4.40002C10.2122 4.04714 10.1172 3.68203 10.0594 3.31018C9.49453 3.83049 9.02109 4.45861 8.625 5.19455C7.84219 6.66174 7.48125 7.96721 7.55156 9.07815C7.56836 9.33979 7.52563 9.60184 7.42658 9.8446C7.32753 10.0874 7.17473 10.3045 6.97969 10.4797C6.81066 10.6324 6.61298 10.75 6.39812 10.8256C6.18327 10.9013 5.95553 10.9335 5.72813 10.9203C5.26641 10.8969 4.84219 10.693 4.53281 10.3485C4.22109 9.99924 3.95156 9.64299 3.72656 9.27971C3.39844 9.69924 3.12422 10.1563 2.90625 10.6485C2.53359 11.4875 2.34375 12.3805 2.34375 13.2992C2.34375 15.0547 3.03516 16.7071 4.28906 17.9492Z" fill="#E31818"/>
</svg>
