<svg width="224" height="86" viewBox="0 0 224 86" fill="none" xmlns="http://www.w3.org/2000/svg">
<rect width="224" height="86" rx="8" fill="black"/>
<path d="M50.3144 51.7909C55.6441 49.0525 59.6845 46.966 60.0327 46.8037C61.1468 46.2494 62.2973 44.7821 60.0327 43.6424C59.3016 43.284 55.365 41.2624 50.3144 38.6553L43.3127 45.2718L50.3144 51.7907V51.7909Z" fill="#FFD900"/>
<path d="M43.3079 45.3062L21.014 66.3307C21.5373 66.3955 22.1281 66.2657 22.8246 65.9074C24.2869 65.1584 39.7889 57.2369 50.3096 51.8268L43.3079 45.3062Z" fill="#F43249"/>
<path d="M43.3203 45.2965L50.3219 38.7126C50.3219 38.7126 24.405 25.4779 22.837 24.6966C22.2462 24.3692 21.5841 24.2719 20.9917 24.3692L43.3203 45.2965Z" fill="#00EE76"/>
<path d="M43.3339 45.2828L21.0053 24.3555C20.0991 24.5515 19.3333 25.3007 19.3333 26.8328L19.3333 63.83C19.3333 65.2323 19.9259 66.2423 21.04 66.3397L43.3339 45.2828Z" fill="#00D3FF"/>
<path d="M77.644 33H78.58L74.74 24.6H73.864L70.024 33H70.948L71.956 30.756H76.636L77.644 33ZM72.28 30.036L74.296 25.524L76.312 30.036H72.28ZM83.0056 26.64C81.9136 26.64 81.0616 27.084 80.6056 27.852V26.688H79.7896V33H80.6416V29.688C80.6416 28.248 81.4936 27.408 82.8496 27.408C84.0496 27.408 84.7456 28.092 84.7456 29.424V33H85.5976V29.34C85.5976 27.528 84.5416 26.64 83.0056 26.64ZM92.8421 24.096V27.888C92.3141 27.072 91.4501 26.64 90.4421 26.64C88.6421 26.64 87.2981 27.936 87.2981 29.844C87.2981 31.752 88.6421 33.06 90.4421 33.06C91.4861 33.06 92.3621 32.604 92.8781 31.752V33H93.6941V24.096H92.8421ZM90.5141 32.304C89.1701 32.304 88.1621 31.32 88.1621 29.844C88.1621 28.368 89.1701 27.384 90.5141 27.384C91.8461 27.384 92.8541 28.368 92.8541 29.844C92.8541 31.32 91.8461 32.304 90.5141 32.304ZM96.8829 27.924V26.688H96.0669V33H96.9189V29.784C96.9189 28.296 97.7229 27.456 99.0429 27.456C99.1029 27.456 99.1749 27.468 99.2469 27.468V26.64C98.0829 26.64 97.2789 27.084 96.8829 27.924ZM103.311 33.06C105.159 33.06 106.515 31.716 106.515 29.844C106.515 27.972 105.159 26.64 103.311 26.64C101.463 26.64 100.095 27.972 100.095 29.844C100.095 31.716 101.463 33.06 103.311 33.06ZM103.311 32.304C101.967 32.304 100.959 31.32 100.959 29.844C100.959 28.368 101.967 27.384 103.311 27.384C104.655 27.384 105.651 28.368 105.651 29.844C105.651 31.32 104.655 32.304 103.311 32.304ZM108.686 25.308C109.046 25.308 109.31 25.032 109.31 24.684C109.31 24.36 109.034 24.096 108.686 24.096C108.338 24.096 108.062 24.372 108.062 24.696C108.062 25.032 108.338 25.308 108.686 25.308ZM108.254 33H109.106V26.688H108.254V33ZM116.385 24.096V27.888C115.857 27.072 114.993 26.64 113.985 26.64C112.185 26.64 110.841 27.936 110.841 29.844C110.841 31.752 112.185 33.06 113.985 33.06C115.029 33.06 115.905 32.604 116.421 31.752V33H117.237V24.096H116.385ZM114.057 32.304C112.713 32.304 111.705 31.32 111.705 29.844C111.705 28.368 112.713 27.384 114.057 27.384C115.389 27.384 116.397 28.368 116.397 29.844C116.397 31.32 115.389 32.304 114.057 32.304ZM124.959 26.64C123.963 26.64 123.027 26.952 122.391 27.492L122.775 28.128C123.291 27.672 124.059 27.384 124.875 27.384C126.051 27.384 126.663 27.972 126.663 29.052V29.436H124.659C122.847 29.436 122.223 30.252 122.223 31.224C122.223 32.316 123.099 33.06 124.527 33.06C125.571 33.06 126.315 32.664 126.699 32.016V33H127.515V29.088C127.515 27.456 126.591 26.64 124.959 26.64ZM124.659 32.388C123.651 32.388 123.062 31.932 123.062 31.2C123.062 30.552 123.459 30.072 124.683 30.072H126.663V31.104C126.327 31.932 125.619 32.388 124.659 32.388ZM133.081 26.64C132.037 26.64 131.161 27.096 130.645 27.936V26.688H129.829V35.328H130.681V31.812C131.209 32.628 132.073 33.06 133.081 33.06C134.881 33.06 136.225 31.764 136.225 29.844C136.225 27.936 134.881 26.64 133.081 26.64ZM133.021 32.304C131.677 32.304 130.669 31.32 130.669 29.844C130.669 28.38 131.677 27.384 133.021 27.384C134.353 27.384 135.373 28.38 135.373 29.844C135.373 31.32 134.353 32.304 133.021 32.304ZM141.213 26.64C140.169 26.64 139.293 27.096 138.777 27.936V26.688H137.961V35.328H138.813V31.812C139.341 32.628 140.205 33.06 141.213 33.06C143.013 33.06 144.357 31.764 144.357 29.844C144.357 27.936 143.013 26.64 141.213 26.64ZM141.153 32.304C139.809 32.304 138.801 31.32 138.801 29.844C138.801 28.38 139.809 27.384 141.153 27.384C142.485 27.384 143.505 28.38 143.505 29.844C143.505 31.32 142.485 32.304 141.153 32.304ZM151.815 33.06C153.663 33.06 155.019 31.716 155.019 29.844C155.019 27.972 153.663 26.64 151.815 26.64C149.967 26.64 148.599 27.972 148.599 29.844C148.599 31.716 149.967 33.06 151.815 33.06ZM151.815 32.304C150.471 32.304 149.463 31.32 149.463 29.844C149.463 28.368 150.471 27.384 151.815 27.384C153.159 27.384 154.155 28.368 154.155 29.844C154.155 31.32 153.159 32.304 151.815 32.304ZM159.974 26.64C158.882 26.64 158.03 27.084 157.574 27.852V26.688H156.758V33H157.61V29.688C157.61 28.248 158.462 27.408 159.818 27.408C161.018 27.408 161.714 28.092 161.714 29.424V33H162.566V29.34C162.566 27.528 161.51 26.64 159.974 26.64Z" fill="white"/>
<path d="M84.16 50.504H86.464V57.056C85.632 57.744 84.664 58.272 83.56 58.64C82.456 59.008 81.304 59.192 80.104 59.192C78.408 59.192 76.88 58.824 75.52 58.088C74.16 57.336 73.088 56.312 72.304 55.016C71.536 53.704 71.152 52.232 71.152 50.6C71.152 48.968 71.536 47.496 72.304 46.184C73.088 44.872 74.16 43.848 75.52 43.112C76.896 42.376 78.44 42.008 80.152 42.008C81.496 42.008 82.712 42.232 83.8 42.68C84.904 43.112 85.84 43.752 86.608 44.6L85.12 46.088C83.776 44.792 82.152 44.144 80.248 44.144C78.968 44.144 77.816 44.424 76.792 44.984C75.784 45.528 74.992 46.296 74.416 47.288C73.84 48.264 73.552 49.368 73.552 50.6C73.552 51.816 73.84 52.92 74.416 53.912C74.992 54.888 75.784 55.656 76.792 56.216C77.816 56.776 78.96 57.056 80.224 57.056C81.728 57.056 83.04 56.696 84.16 55.976V50.504ZM96.1711 59.144C94.9071 59.144 93.7711 58.864 92.7631 58.304C91.7551 57.744 90.9631 56.976 90.3871 56C89.8271 55.008 89.5471 53.888 89.5471 52.64C89.5471 51.392 89.8271 50.28 90.3871 49.304C90.9631 48.312 91.7551 47.544 92.7631 47C93.7711 46.44 94.9071 46.16 96.1711 46.16C97.4351 46.16 98.5631 46.44 99.5551 47C100.563 47.544 101.347 48.312 101.907 49.304C102.483 50.28 102.771 51.392 102.771 52.64C102.771 53.888 102.483 55.008 101.907 56C101.347 56.976 100.563 57.744 99.5551 58.304C98.5631 58.864 97.4351 59.144 96.1711 59.144ZM96.1711 57.128C96.9871 57.128 97.7151 56.944 98.3551 56.576C99.0111 56.192 99.5231 55.664 99.8911 54.992C100.259 54.304 100.443 53.52 100.443 52.64C100.443 51.76 100.259 50.984 99.8911 50.312C99.5231 49.624 99.0111 49.096 98.3551 48.728C97.7151 48.36 96.9871 48.176 96.1711 48.176C95.3551 48.176 94.6191 48.36 93.9631 48.728C93.3231 49.096 92.8111 49.624 92.4271 50.312C92.0591 50.984 91.8751 51.76 91.8751 52.64C91.8751 53.52 92.0591 54.304 92.4271 54.992C92.8111 55.664 93.3231 56.192 93.9631 56.576C94.6191 56.944 95.3551 57.128 96.1711 57.128ZM111.405 59.144C110.141 59.144 109.005 58.864 107.997 58.304C106.989 57.744 106.197 56.976 105.621 56C105.061 55.008 104.781 53.888 104.781 52.64C104.781 51.392 105.061 50.28 105.621 49.304C106.197 48.312 106.989 47.544 107.997 47C109.005 46.44 110.141 46.16 111.405 46.16C112.669 46.16 113.797 46.44 114.789 47C115.797 47.544 116.581 48.312 117.141 49.304C117.717 50.28 118.005 51.392 118.005 52.64C118.005 53.888 117.717 55.008 117.141 56C116.581 56.976 115.797 57.744 114.789 58.304C113.797 58.864 112.669 59.144 111.405 59.144ZM111.405 57.128C112.221 57.128 112.949 56.944 113.589 56.576C114.245 56.192 114.757 55.664 115.125 54.992C115.493 54.304 115.677 53.52 115.677 52.64C115.677 51.76 115.493 50.984 115.125 50.312C114.757 49.624 114.245 49.096 113.589 48.728C112.949 48.36 112.221 48.176 111.405 48.176C110.589 48.176 109.853 48.36 109.197 48.728C108.557 49.096 108.045 49.624 107.661 50.312C107.293 50.984 107.109 51.76 107.109 52.64C107.109 53.52 107.293 54.304 107.661 54.992C108.045 55.664 108.557 56.192 109.197 56.576C109.853 56.944 110.589 57.128 111.405 57.128ZM133.36 46.28V57.272C133.36 59.496 132.808 61.136 131.704 62.192C130.6 63.264 128.952 63.8 126.76 63.8C125.56 63.8 124.416 63.632 123.328 63.296C122.24 62.976 121.36 62.512 120.688 61.904L121.792 60.128C122.384 60.64 123.112 61.04 123.976 61.328C124.856 61.632 125.76 61.784 126.688 61.784C128.176 61.784 129.272 61.432 129.976 60.728C130.696 60.024 131.056 58.952 131.056 57.512V56.504C130.512 57.16 129.84 57.656 129.04 57.992C128.256 58.312 127.4 58.472 126.472 58.472C125.256 58.472 124.152 58.216 123.16 57.704C122.184 57.176 121.416 56.448 120.856 55.52C120.296 54.576 120.016 53.504 120.016 52.304C120.016 51.104 120.296 50.04 120.856 49.112C121.416 48.168 122.184 47.44 123.16 46.928C124.152 46.416 125.256 46.16 126.472 46.16C127.432 46.16 128.32 46.336 129.136 46.688C129.968 47.04 130.648 47.56 131.176 48.248V46.28H133.36ZM126.736 56.456C127.568 56.456 128.312 56.28 128.968 55.928C129.64 55.576 130.16 55.088 130.528 54.464C130.912 53.824 131.104 53.104 131.104 52.304C131.104 51.072 130.696 50.08 129.88 49.328C129.064 48.56 128.016 48.176 126.736 48.176C125.44 48.176 124.384 48.56 123.568 49.328C122.752 50.08 122.344 51.072 122.344 52.304C122.344 53.104 122.528 53.824 122.896 54.464C123.28 55.088 123.8 55.576 124.456 55.928C125.128 56.28 125.888 56.456 126.736 56.456ZM137.762 41.192H140.066V59H137.762V41.192ZM155.961 52.712C155.961 52.888 155.945 53.12 155.913 53.408H145.593C145.737 54.528 146.225 55.432 147.057 56.12C147.905 56.792 148.953 57.128 150.201 57.128C151.721 57.128 152.945 56.616 153.873 55.592L155.145 57.08C154.569 57.752 153.849 58.264 152.985 58.616C152.137 58.968 151.185 59.144 150.129 59.144C148.785 59.144 147.593 58.872 146.553 58.328C145.513 57.768 144.705 56.992 144.129 56C143.569 55.008 143.289 53.888 143.289 52.64C143.289 51.408 143.561 50.296 144.105 49.304C144.665 48.312 145.425 47.544 146.385 47C147.361 46.44 148.457 46.16 149.673 46.16C150.889 46.16 151.969 46.44 152.913 47C153.873 47.544 154.617 48.312 155.145 49.304C155.689 50.296 155.961 51.432 155.961 52.712ZM149.673 48.104C148.569 48.104 147.641 48.44 146.889 49.112C146.153 49.784 145.721 50.664 145.593 51.752H153.753C153.625 50.68 153.185 49.808 152.433 49.136C151.697 48.448 150.777 48.104 149.673 48.104ZM172.35 46.16C173.582 46.16 174.686 46.432 175.662 46.976C176.638 47.52 177.398 48.28 177.942 49.256C178.502 50.232 178.782 51.36 178.782 52.64C178.782 53.92 178.502 55.056 177.942 56.048C177.398 57.024 176.638 57.784 175.662 58.328C174.686 58.872 173.582 59.144 172.35 59.144C171.438 59.144 170.598 58.968 169.83 58.616C169.078 58.264 168.438 57.752 167.91 57.08V63.656H165.606V46.28H167.814V48.296C168.326 47.592 168.974 47.064 169.758 46.712C170.542 46.344 171.406 46.16 172.35 46.16ZM172.158 57.128C172.974 57.128 173.702 56.944 174.342 56.576C174.998 56.192 175.51 55.664 175.878 54.992C176.262 54.304 176.454 53.52 176.454 52.64C176.454 51.76 176.262 50.984 175.878 50.312C175.51 49.624 174.998 49.096 174.342 48.728C173.702 48.36 172.974 48.176 172.158 48.176C171.358 48.176 170.63 48.368 169.974 48.752C169.334 49.12 168.822 49.64 168.438 50.312C168.07 50.984 167.886 51.76 167.886 52.64C167.886 53.52 168.07 54.304 168.438 54.992C168.806 55.664 169.318 56.192 169.974 56.576C170.63 56.944 171.358 57.128 172.158 57.128ZM181.965 41.192H184.269V59H181.965V41.192ZM193.3 46.16C195.06 46.16 196.404 46.592 197.332 47.456C198.276 48.32 198.748 49.608 198.748 51.32V59H196.564V57.32C196.18 57.912 195.628 58.368 194.908 58.688C194.204 58.992 193.364 59.144 192.388 59.144C190.964 59.144 189.82 58.8 188.956 58.112C188.108 57.424 187.684 56.52 187.684 55.4C187.684 54.28 188.092 53.384 188.908 52.712C189.724 52.024 191.02 51.68 192.796 51.68H196.444V51.224C196.444 50.232 196.156 49.472 195.58 48.944C195.004 48.416 194.156 48.152 193.036 48.152C192.284 48.152 191.548 48.28 190.828 48.536C190.108 48.776 189.5 49.104 189.004 49.52L188.044 47.792C188.7 47.264 189.484 46.864 190.396 46.592C191.308 46.304 192.276 46.16 193.3 46.16ZM192.772 57.368C193.652 57.368 194.412 57.176 195.052 56.792C195.692 56.392 196.156 55.832 196.444 55.112V53.336H192.892C190.94 53.336 189.964 53.992 189.964 55.304C189.964 55.944 190.212 56.448 190.708 56.816C191.204 57.184 191.892 57.368 192.772 57.368ZM214.034 46.28L207.866 60.272C207.322 61.568 206.682 62.48 205.946 63.008C205.226 63.536 204.354 63.8 203.33 63.8C202.706 63.8 202.098 63.696 201.506 63.488C200.93 63.296 200.45 63.008 200.066 62.624L201.05 60.896C201.706 61.52 202.466 61.832 203.33 61.832C203.89 61.832 204.354 61.68 204.722 61.376C205.106 61.088 205.45 60.584 205.754 59.864L206.162 58.976L200.546 46.28H202.946L207.386 56.456L211.778 46.28H214.034Z" fill="white"/>
</svg>
