<svg width="276" height="62" viewBox="0 0 276 62" fill="none" xmlns="http://www.w3.org/2000/svg">
<path d="M196.201 21.3132C194.887 21.6331 193.103 21.5402 192.436 21.5402H188.852V36.8677H184.151V10.9899H188.852V17.9203H193.822C195.05 17.9394 196.272 17.7601 197.442 17.3894C198.413 17.0811 199.309 16.5744 200.073 15.9013C200.772 15.2683 201.316 14.4843 201.666 13.6089C202.031 12.669 202.211 11.6676 202.197 10.6594C202.197 8.4745 201.515 6.82586 200.151 5.71349C198.788 4.60113 196.741 4.04539 194.012 4.04627H188.846C188.846 4.04627 184.144 3.24982 184.144 0.123779H194.012C196.224 0.123779 198.132 0.35873 199.736 0.828632C201.339 1.29853 202.667 1.97773 203.718 2.8662C204.748 3.73087 205.548 4.83667 206.046 6.08517C206.566 7.42908 206.822 8.86032 206.802 10.301C206.812 11.5389 206.614 12.7698 206.216 13.9421C205.842 15.0509 205.272 16.0837 204.533 16.9911C203.771 17.9072 202.856 18.6842 201.828 19.2876C200.766 19.9207 199.115 20.6734 197.769 20.9986" fill="#0371FF"/>
<path d="M203.736 27.8414L209.954 36.8677H205.763C204.901 36.8677 204.267 36.5169 203.864 35.8151L196.753 25.4202C196.753 25.4202 201.959 25.4135 203.736 27.8414Z" fill="#0371FF"/>
<path d="M219.25 21.1784H226.542C226.552 20.2224 226.411 19.2707 226.123 18.359C225.866 17.5475 225.45 16.7953 224.899 16.1462C224.364 15.5247 223.695 15.0316 222.944 14.7033C222.117 14.3519 221.226 14.1782 220.327 14.1936C218.28 14.1936 216.66 14.8108 215.468 16.0453C214.276 17.2798 213.536 18.9909 213.248 21.1784L213.104 23.9395C213.152 25.5323 213.364 26.9164 213.74 28.0916C214.061 29.1685 214.596 30.1697 215.313 31.0358C215.961 31.8069 216.783 32.4121 217.712 32.8013C218.702 33.2045 219.762 33.404 220.83 33.388C221.769 33.4069 222.705 33.2769 223.603 33.003C224.293 32.7814 224.963 32.503 225.606 32.1707C226.09 31.9187 226.559 31.6395 227.011 31.3345C227.386 31.0778 227.71 30.9495 227.982 30.9495C228.144 30.9432 228.304 30.9789 228.447 31.0532C228.59 31.1274 228.711 31.2376 228.799 31.373L229.993 32.9884C229.455 33.6595 228.815 34.2418 228.097 34.7141C227.358 35.2053 226.565 35.6106 225.734 35.922C224.893 36.2405 224.023 36.4796 223.137 36.6362C222.258 36.7931 221.367 36.8722 220.473 36.8724C218.882 36.8887 217.303 36.5891 215.828 35.991C214.426 35.4133 213.172 34.5293 212.156 33.4039C211.125 32.2685 210.321 30.8637 209.744 29.1894C209.167 27.5151 208.88 25.5925 208.881 23.4218C208.868 21.7493 209.131 20.0862 209.661 18.4997C210.141 17.0438 210.903 15.6966 211.904 14.5347C212.89 13.4069 214.11 12.5077 215.48 11.8998C216.887 11.2609 218.471 10.9414 220.232 10.9414C221.616 10.9279 222.989 11.1863 224.274 11.702C225.491 12.1914 226.588 12.9376 227.49 13.8896C228.433 14.907 229.156 16.1082 229.614 17.4179C230.126 18.8179 230.382 20.4134 230.382 22.2045C230.382 22.9019 230.31 23.3665 230.166 23.5983C230.023 23.8306 229.749 23.9448 229.35 23.9448H216.409C216.409 23.9448 217.415 21.1784 219.25 21.1784Z" fill="#0371FF"/>
<path d="M239.245 18.0702V36.8676H234.686V11.3416C238.114 11.3416 239.245 18.0702 239.245 18.0702Z" fill="#0371FF"/>
<path d="M242.745 12.0577C243.458 11.6949 244.211 11.4165 244.989 11.2281C245.827 11.0281 246.686 10.93 247.548 10.9361C248.958 10.9361 250.202 11.167 251.279 11.629C252.32 12.0646 253.245 12.7373 253.981 13.5935C254.728 14.4942 255.288 15.5355 255.626 16.6559C256.012 17.9395 256.199 19.2741 256.184 20.6142V36.867H251.624V20.6142C251.624 18.6815 251.179 17.182 250.288 16.1156C249.397 15.0492 248.043 14.5161 246.226 14.5161" fill="#0371FF"/>
<path d="M267.126 17.2019V29.945C267.126 31.0326 267.398 31.8387 267.941 32.3635C268.485 32.8883 269.187 33.1511 270.048 33.152C270.48 33.1607 270.91 33.0961 271.321 32.9608C271.643 32.8503 271.954 32.7099 272.25 32.5414C272.515 32.3887 272.735 32.2494 272.922 32.1219C273.061 32.0114 273.229 31.9449 273.406 31.9308C273.652 31.9308 273.872 32.0755 274.07 32.3635L275.438 34.5272C274.585 35.2818 273.593 35.863 272.517 36.2382C271.389 36.6527 270.196 36.8643 268.994 36.8634C266.887 36.8634 265.277 36.294 264.14 35.1537C263.002 34.0135 262.444 32.3808 262.444 30.2423V21.1708C262.444 21.1708 263.924 17.2019 267.126 17.2019Z" fill="#0371FF"/>
<path d="M262.445 14.4687H259.243C258.985 14.4758 258.732 14.3901 258.531 14.2271C258.336 14.0638 258.241 13.8156 258.241 13.4745V11.6599L262.608 11.1289L263.687 3.16443C263.732 2.92298 263.857 2.7039 264.043 2.5432C264.245 2.37469 264.502 2.28842 264.765 2.30161H267.132V11.1767H274.837V14.4687H267.132" fill="#0371FF"/>
<path d="M72.3438 0.133057V36.8677H76.5133V9.8749C76.5086 9.03573 76.4594 8.1974 76.3659 7.36345C76.3659 7.36345 74.927 0.133057 72.3438 0.133057Z" fill="#0B1C2E"/>
<path d="M105.396 0.133086C105.06 0.121671 104.725 0.166539 104.404 0.265827C104.166 0.352108 103.95 0.591044 103.754 0.985285L91.8348 23.5645C91.6158 23.9852 91.4195 24.4172 91.2467 24.8588C91.0648 25.3087 90.8936 25.7667 90.7303 26.2286C90.5671 25.7667 90.3905 25.3167 90.1994 24.8694C90.0082 24.422 85.9411 16.3859 85.9411 16.3859L83.2517 19.5783L88.6702 30.4339C89.0463 31.2029 89.6184 31.5865 90.3865 31.5847H91.0715C91.8396 31.5847 92.4122 31.2011 92.7892 30.4339L104.85 7.46968C104.818 7.89844 104.789 8.3179 104.765 8.72807C104.741 9.13824 104.728 9.52451 104.728 9.88026V36.8678H108.895V0.133086H105.396Z" fill="#0B1C2E"/>
<path d="M122.49 21.1787H129.783C129.794 20.2225 129.652 19.2708 129.364 18.3592C129.107 17.5475 128.691 16.7952 128.14 16.1465C127.605 15.5247 126.936 15.0315 126.185 14.7036C125.358 14.3521 124.466 14.1785 123.568 14.1938C121.521 14.1938 119.901 14.8111 118.708 16.0456C117.516 17.2801 116.776 18.9911 116.489 21.1787L116.346 23.9397C116.393 25.5325 116.605 26.9166 116.982 28.0918C117.302 29.1688 117.837 30.1701 118.553 31.036C119.202 31.8065 120.024 32.4116 120.953 32.8014C121.943 33.2047 123.004 33.4043 124.073 33.3881C125.011 33.4071 125.946 33.2771 126.844 33.0032C127.534 32.7815 128.204 32.5032 128.847 32.1709C129.331 31.9189 129.801 31.6397 130.253 31.3346C130.627 31.0784 130.953 30.9497 131.223 30.9497C131.385 30.9434 131.545 30.9791 131.688 31.0533C131.831 31.1276 131.952 31.2378 132.04 31.3731L133.234 32.9886C132.696 33.6594 132.056 34.2417 131.338 34.7142C130.598 35.2055 129.805 35.6107 128.973 35.9222C128.129 36.2389 127.257 36.4757 126.369 36.6297C125.49 36.7866 124.599 36.8657 123.706 36.8659C122.115 36.882 120.535 36.5824 119.06 35.9845C117.659 35.4064 116.405 34.5225 115.39 33.3974C114.357 32.2621 113.553 30.8572 112.978 29.1829C112.403 27.5086 112.115 25.5861 112.114 23.4153C112.101 21.7428 112.364 20.0797 112.894 18.4933C113.375 17.0372 114.137 15.69 115.138 14.5284C116.124 13.4009 117.344 12.5017 118.712 11.8935C120.121 11.2545 121.705 10.9351 123.465 10.9351C124.849 10.9216 126.223 11.1801 127.508 11.6957C128.724 12.1854 129.821 12.9315 130.723 13.8832C131.667 14.9003 132.39 16.1015 132.847 17.4115C133.359 18.8115 133.615 20.407 133.615 22.1981C133.615 22.8954 133.544 23.36 133.4 23.5919C133.256 23.8242 132.984 23.9383 132.583 23.9383H119.651C119.651 23.9383 120.661 21.1787 122.49 21.1787Z" fill="#0B1C2E"/>
<path d="M163.021 16.918C163.239 17.0766 163.502 17.1591 163.771 17.153C164.18 17.14 164.575 16.9973 164.898 16.7454C165.276 16.472 165.729 16.164 166.255 15.8255C166.841 15.4577 167.464 15.1513 168.113 14.911C168.832 14.6375 169.724 14.5012 170.789 14.5021C172.371 14.5021 173.574 15.0021 174.398 16.0021L177.644 13.5623C176.902 12.7257 175.984 12.0649 174.954 11.6283C173.796 11.1501 172.552 10.9147 171.299 10.9367C169.393 10.9367 167.656 11.2672 166.089 11.9283C164.451 12.6381 162.964 13.6551 161.708 14.9242L162.482 16.3339C162.623 16.5611 162.806 16.7593 163.021 16.918Z" fill="#0B1C2E"/>
<path d="M175.639 22.3762C172.845 22.4452 170.487 22.7054 168.567 23.1567C166.646 23.608 165.089 24.1912 163.893 24.9062C162.697 25.6142 161.832 26.427 161.301 27.3447C160.784 28.2086 160.508 29.1957 160.504 30.2026C160.504 31.3432 160.685 32.33 161.048 33.1627C161.381 33.9539 161.886 34.6608 162.527 35.2321C163.166 35.7866 163.912 36.2032 164.719 36.456C165.588 36.7338 166.495 36.8727 167.408 36.8675C168.266 36.8747 169.123 36.7857 169.962 36.602C170.71 36.4372 171.437 36.1878 172.13 35.8586C172.816 35.5336 173.466 35.1353 174.068 34.6706C174.724 34.1646 175.354 33.6245 175.954 33.0525L176.438 35.4299C176.571 35.8414 176.745 36.1201 176.969 36.2582C177.194 36.3962 177.519 36.4693 177.94 36.4693H179.852V19.0178C176.595 19.0178 175.639 22.3762 175.639 22.3762ZM175.639 30.3778C175.181 30.8843 174.685 31.3555 174.156 31.7875C173.661 32.1925 173.128 32.5482 172.564 32.8494C172 33.1494 171.402 33.379 170.782 33.533C170.1 33.6964 169.401 33.7757 168.7 33.7693C168.161 33.7725 167.625 33.7014 167.107 33.5582C166.636 33.4287 166.199 33.2002 165.824 32.8879C165.45 32.5685 165.156 32.1663 164.964 31.7132C164.742 31.1708 164.634 30.5882 164.648 30.0021C164.642 29.3276 164.85 28.6685 165.243 28.1199C165.638 27.5597 166.276 27.073 167.156 26.6597C168.035 26.2464 169.173 25.9124 170.57 25.6575C172.248 25.3753 173.944 25.2138 175.644 25.1743L175.639 30.3778Z" fill="#0B1C2E"/>
<path d="M152.081 12.4399C152.081 12.4399 150.061 12.9417 150.061 15.6775L156.309 15.2793C156.953 15.1213 157.277 14.7483 157.277 14.1735V12.4399H152.081Z" fill="#0B1C2E"/>
<path d="M154.421 33.9267C153.64 33.4698 152.787 33.1493 151.899 32.9789C150.942 32.7828 149.974 32.6454 149 32.5674C148.008 32.4904 147.041 32.4342 146.1 32.3988C145.253 32.3734 144.41 32.2847 143.578 32.1334C142.841 31.9927 142.25 31.7617 141.794 31.4351C141.337 31.1086 141.115 30.6387 141.115 30.0015C141.125 29.5736 141.261 29.158 141.506 28.8069C141.811 28.3692 142.193 27.9908 142.634 27.6905C143.634 27.9938 144.674 28.145 145.719 28.1392C146.912 28.1502 148.098 27.9446 149.218 27.5326C150.25 27.1532 151.191 26.5612 151.98 25.795C152.761 25.018 153.376 24.0904 153.788 23.0685C154.237 21.9425 154.46 20.7391 154.444 19.527L150.783 19.6597C150.791 20.3957 150.682 21.1283 150.46 21.83C150.263 22.4583 149.933 23.0372 149.494 23.5278C149.052 24.011 148.508 24.3889 147.901 24.6335C146.489 25.1641 144.932 25.1641 143.521 24.6335C142.913 24.3893 142.369 24.0114 141.928 23.5278C141.487 23.0361 141.154 22.4579 140.949 21.83C140.72 21.1299 140.607 20.3966 140.615 19.6597C140.615 18.0244 141.048 16.7248 141.916 15.7611C142.783 14.7975 144.045 14.3138 145.703 14.3103C145.703 14.3103 148.534 12.8342 148.534 11.3236C148.534 11.3236 146.716 10.9413 145.703 10.9413C144.497 10.9302 143.299 11.1357 142.165 11.548C141.125 11.9262 140.173 12.5135 139.368 13.2736C138.574 14.0389 137.95 14.9641 137.539 15.9881C137.089 17.1138 136.866 18.3174 136.882 19.5297C136.882 21.1429 137.205 22.5588 137.85 23.7773C138.474 24.9768 139.402 25.9908 140.542 26.7175C140.07 26.981 139.637 27.3085 139.254 27.6905C138.9 28.0435 138.588 28.4369 138.325 28.8626C138.083 29.2482 137.894 29.6642 137.762 30.0998C137.642 30.4867 137.579 30.8893 137.576 31.2944C137.576 32.294 137.781 33.0864 138.187 33.6838C138.609 34.2835 139.175 34.7673 139.833 35.0908C138.575 35.6351 137.585 36.3638 136.864 37.2771C136.142 38.1877 135.782 39.3053 135.782 40.6195C135.781 41.5482 135.998 42.4643 136.415 43.2942C136.866 44.1829 137.516 44.9552 138.314 45.5508C139.157 46.1985 140.216 46.7167 141.491 47.1052C142.766 47.4936 144.255 47.6861 145.956 47.6826C147.661 47.6826 149.192 47.4326 150.549 46.9326C151.809 46.4834 152.973 45.8002 153.979 44.9189C154.884 44.1247 155.617 43.1528 156.131 42.0637C156.621 41.026 156.877 39.8929 156.879 38.7452C156.879 37.5186 156.653 36.5182 156.2 35.7439C155.773 34.9954 155.16 34.3696 154.421 33.9267ZM152.625 41.4318C152.281 42.0318 151.804 42.545 151.231 42.9318C150.554 43.3848 149.802 43.7142 149.011 43.9048C147.061 44.3547 145.035 44.3597 143.084 43.9194C142.343 43.7421 141.638 43.4391 141 43.0234C140.484 42.6855 140.061 42.2242 139.768 41.6814C139.501 41.164 139.365 40.5895 139.37 40.0075C139.354 39.1257 139.643 38.2653 140.187 37.5717C140.761 36.8553 141.479 36.2674 142.294 35.8461C143.061 35.9682 143.858 36.0567 144.683 36.1116C145.512 36.1634 146.329 36.2138 147.135 36.2696C147.941 36.3253 148.704 36.3943 149.425 36.4939C150.076 36.5712 150.715 36.7341 151.324 36.9784C151.831 37.1791 152.279 37.5052 152.625 37.9261C152.946 38.3297 153.107 38.8562 153.108 39.5058C153.116 40.1787 152.949 40.8421 152.625 41.4318Z" fill="#0B1C2E"/>
<path d="M77.3627 56.3929C77.3627 57.1442 77.1352 57.7044 76.6804 58.0734C76.2255 58.4425 75.5291 58.6265 74.5911 58.6256H72.3438V50.9983H76.9007V51.8439H73.3101V54.2226H74.449C75.4286 54.2226 76.1592 54.3947 76.6406 54.739C77.122 55.0832 77.3627 55.6345 77.3627 56.3929ZM73.3101 57.8013H74.4902C75.1486 57.8013 75.6255 57.6911 75.9211 57.4708C76.2171 57.2491 76.3658 56.8907 76.3658 56.3929C76.3658 55.8951 76.2118 55.562 75.9039 55.3602C75.5959 55.1584 75.0716 55.0575 74.3335 55.0575H73.3101V57.8013Z" fill="#0B1C2E"/>
<path d="M83.2277 55.7521C83.2277 56.6875 82.9901 57.4176 82.5149 57.9423C82.0397 58.4671 81.3817 58.7299 80.541 58.7308C80.0541 58.7401 79.574 58.6147 79.1539 58.3684C78.7475 58.1217 78.424 57.7594 78.2247 57.3278C77.9969 56.8343 77.8839 56.2956 77.8941 55.7521C77.8941 54.8194 78.1286 54.0933 78.5977 53.5739C79.0667 53.0544 79.7251 52.7947 80.5729 52.7947C81.3853 52.7947 82.0299 53.0602 82.5069 53.5911C82.9839 54.1221 83.2242 54.8424 83.2277 55.7521ZM78.8764 55.7521C78.8764 56.4716 79.0189 57.0185 79.3039 57.3928C79.5888 57.7671 80.0096 57.9539 80.5662 57.953C81.1158 57.953 81.5344 57.7662 81.822 57.3928C82.1096 57.0194 82.2512 56.4725 82.2467 55.7521C82.2467 55.0318 82.1025 54.4898 81.814 54.1261C81.5255 53.7624 81.1025 53.5809 80.545 53.5818C79.4291 53.5827 78.8711 54.3061 78.8711 55.7521H78.8764Z" fill="#0B1C2E"/>
<path d="M88.4951 58.6264H87.534V53.6804H85.8389C85.7763 54.6722 85.6432 55.6583 85.4407 56.6313C85.2752 57.3454 85.0584 57.8689 84.7903 58.2016C84.6079 58.4172 84.365 58.5729 84.093 58.6486C83.821 58.7244 83.5326 58.7166 83.2651 58.6264V57.9229C83.3597 57.9537 83.459 57.9677 83.5584 57.964C83.9451 57.964 84.2549 57.5605 84.4876 56.7534C84.7204 55.9463 84.8973 54.6631 85.0186 52.9038H88.4937L88.4951 58.6264Z" fill="#0B1C2E"/>
<path d="M90.6616 55.2509H92.3739C93.8713 55.2509 94.6199 55.792 94.6199 56.8743C94.6199 57.4433 94.4257 57.8779 94.0372 58.1779C93.6487 58.4778 93.0801 58.6274 92.3315 58.6265H89.7165V52.8987H90.6616V55.2509ZM93.6748 56.9261C93.6843 56.7945 93.6593 56.6627 93.6023 56.5437C93.5452 56.4248 93.4581 56.3228 93.3496 56.2478C93.1337 56.1018 92.7717 56.0288 92.2638 56.0288H90.6616V57.8752H92.289C92.7315 57.8752 93.0739 57.7956 93.3164 57.6363C93.4319 57.5589 93.5252 57.4526 93.5869 57.328C93.6486 57.2034 93.6766 57.0649 93.6682 56.9261H93.6748Z" fill="#0B1C2E"/>
<path d="M99.8658 57.834H102.359V52.8987H103.304V58.6264H95.4867V52.8987H96.4318V57.834H98.9154V52.8987H99.8658V57.834Z" fill="#0B1C2E"/>
<path d="M105.42 52.8987V56.3937L105.379 57.4065L105.358 57.6986L108.448 52.8987H109.608V58.6264H108.725V55.2508L108.741 54.5261L108.768 53.8372L105.701 58.6264H104.531V52.8987H105.42Z" fill="#0B1C2E"/>
<path d="M113.283 58.7322C112.417 58.7322 111.739 58.472 111.248 57.9517C110.757 57.4313 110.511 56.7159 110.51 55.8053C110.51 54.8867 110.739 54.1553 111.197 53.611C111.656 53.0668 112.275 52.7947 113.056 52.7947C113.781 52.7947 114.358 53.027 114.789 53.4916C115.22 53.9562 115.435 54.5849 115.435 55.3778V55.946H111.487C111.505 56.5964 111.671 57.0902 111.986 57.4274C112.301 57.7645 112.747 57.9335 113.324 57.9344C113.618 57.9352 113.912 57.9081 114.201 57.8535C114.535 57.7809 114.861 57.675 115.173 57.5375V58.3619C114.884 58.4878 114.583 58.5839 114.274 58.6486C113.947 58.7085 113.615 58.7365 113.283 58.7322ZM113.047 53.5553C112.847 53.5454 112.648 53.579 112.463 53.6537C112.278 53.7284 112.112 53.8425 111.975 53.988C111.71 54.2774 111.554 54.6792 111.508 55.1933H114.442C114.435 54.6624 114.312 54.2553 114.07 53.9721C113.94 53.8321 113.781 53.7226 113.604 53.6517C113.427 53.5807 113.237 53.5501 113.047 53.5619V53.5553Z" fill="#0B1C2E"/>
<path d="M121.886 58.7314C121.114 58.7314 120.519 58.4549 120.102 57.9018H120.039L120.06 58.1155C120.086 58.3562 120.101 58.5981 120.102 58.8403V61.1938H119.157V52.8987H119.934L120.067 53.6806H120.109C120.306 53.3917 120.573 53.1582 120.886 53.0023C121.205 52.8585 121.553 52.7874 121.904 52.7939C122.654 52.7939 123.236 53.0523 123.649 53.5691C124.062 54.0859 124.27 54.8138 124.272 55.7527C124.272 56.6881 124.064 57.4182 123.648 57.9429C123.232 58.4677 122.645 58.7305 121.886 58.7314ZM121.73 53.5824C121.159 53.5824 120.747 53.7421 120.493 54.0616C120.239 54.381 120.109 54.8837 120.102 55.5695V55.7514C120.102 56.5266 120.232 57.0872 120.491 57.4332C120.751 57.7792 121.171 57.9522 121.751 57.9522C121.974 57.9601 122.195 57.9104 122.393 57.8081C122.591 57.7059 122.759 57.5543 122.882 57.3682C123.153 56.9788 123.289 56.4363 123.289 55.7407C123.29 55.0452 123.155 54.5102 122.882 54.1359C122.751 53.9552 122.577 53.8099 122.376 53.7133C122.175 53.6167 121.953 53.5716 121.73 53.5824Z" fill="#0B1C2E"/>
<path d="M127.611 58.7322C126.747 58.7322 126.068 58.472 125.576 57.9517C125.084 57.4313 124.839 56.7159 124.84 55.8053C124.84 54.8867 125.069 54.1553 125.527 53.611C125.986 53.0668 126.605 52.7947 127.386 52.7947C128.11 52.7947 128.686 53.027 129.111 53.4916C129.537 53.9562 129.753 54.5849 129.758 55.3778V55.946H125.809C125.827 56.5964 125.994 57.0902 126.308 57.4274C126.622 57.7645 127.068 57.9335 127.647 57.9344C127.941 57.9353 128.235 57.9082 128.523 57.8535C128.857 57.781 129.183 57.6752 129.495 57.5375V58.3619C129.206 58.488 128.905 58.5841 128.596 58.6486C128.271 58.7082 127.942 58.7362 127.611 58.7322ZM127.375 53.5553C127.176 53.5457 126.977 53.5794 126.792 53.6541C126.607 53.7288 126.441 53.8427 126.304 53.988C126.038 54.2774 125.883 54.6792 125.837 55.1933H128.772C128.772 54.6624 128.639 54.2509 128.4 53.9721C128.27 53.8322 128.111 53.7228 127.934 53.6519C127.756 53.581 127.566 53.5502 127.375 53.5619V53.5553Z" fill="#0B1C2E"/>
<path d="M134.989 57.834H137.484V52.8987H138.429V58.6264H130.617V52.8987H131.561V57.834H134.044V52.8987H134.995L134.989 57.834Z" fill="#0B1C2E"/>
<path d="M142.105 58.7322C141.241 58.7322 140.563 58.472 140.071 57.9517C139.579 57.4314 139.333 56.7159 139.334 55.8053C139.334 54.8867 139.563 54.1553 140.021 53.611C140.48 53.0668 141.099 52.7947 141.88 52.7947C142.604 52.7947 143.181 53.027 143.612 53.4916C144.043 53.9562 144.258 54.5849 144.257 55.3778V55.946H140.307C140.325 56.5964 140.491 57.0902 140.806 57.4274C141.121 57.7645 141.568 57.9344 142.144 57.9344C142.438 57.9353 142.732 57.9082 143.021 57.8535C143.355 57.7809 143.68 57.675 143.993 57.5375V58.3619C143.704 58.4878 143.403 58.5839 143.094 58.6486C142.768 58.7083 142.437 58.7363 142.105 58.7322ZM141.869 53.5553C141.67 53.5457 141.471 53.5794 141.286 53.6541C141.101 53.7288 140.935 53.8427 140.798 53.988C140.533 54.2774 140.377 54.6792 140.331 55.1933H143.266C143.259 54.6624 143.135 54.2553 142.893 53.9721C142.763 53.8321 142.604 53.7226 142.427 53.6517C142.25 53.5807 142.059 53.5501 141.869 53.5619V53.5553Z" fill="#0B1C2E"/>
<path d="M146.049 52.8987V55.288H149.178V52.8987H150.129V58.6264H149.184V56.0752H146.056V58.6264H145.111V52.8987H146.049Z" fill="#0B1C2E"/>
<path d="M152.234 52.8987V56.3937L152.193 57.4065L152.172 57.6986L155.26 52.8987H156.42V58.6264H155.537V55.2508L155.553 54.5261L155.58 53.8372L152.519 58.6264H151.348V52.8987H152.234Z" fill="#0B1C2E"/>
<path d="M158.001 58.6265H156.899L158.543 56.2212C158.152 56.1414 157.799 55.9341 157.539 55.6318C157.307 55.3348 157.186 54.9655 157.198 54.5885C157.186 54.354 157.229 54.12 157.323 53.9048C157.417 53.6895 157.559 53.4988 157.738 53.3474C158.099 53.0474 158.6 52.8978 159.241 52.8987H161.824V58.6265H160.881V56.3526H159.48L158.001 58.6265ZM158.116 54.5991C158.116 55.2451 158.585 55.5686 159.523 55.5695H160.881V53.6805H159.343C158.945 53.6805 158.635 53.7589 158.427 53.9155C158.323 53.9955 158.241 54.0996 158.187 54.2188C158.133 54.3379 158.109 54.4685 158.116 54.5991Z" fill="#0B1C2E"/>
<path d="M171.038 60.6149H170.123V58.6238H166.113V60.6149H165.209V57.834H165.671C166.155 57.1542 166.522 56.3988 166.758 55.5986C167.021 54.7225 167.159 53.8135 167.168 52.8987H170.197V57.834H171.038V60.6149ZM169.283 57.834V53.6394H168.002C167.946 54.4259 167.796 55.2028 167.553 55.953C167.356 56.6252 167.05 57.2606 166.648 57.834H169.283Z" fill="#0B1C2E"/>
<path d="M175.941 58.6264H174.982V53.6804H173.285C173.223 54.6722 173.089 55.6583 172.887 56.6313C172.72 57.3454 172.503 57.8689 172.235 58.2016C172.053 58.4172 171.81 58.5729 171.538 58.6486C171.266 58.7244 170.978 58.7166 170.71 58.6264V57.9229C170.805 57.9538 170.905 57.9678 171.005 57.964C171.39 57.964 171.697 57.5605 171.926 56.7534C172.155 55.9463 172.332 54.6631 172.457 52.9038H175.932L175.941 58.6264Z" fill="#0B1C2E"/>
<path d="M177.512 58.6265H176.412L178.055 56.2212C177.665 56.1414 177.312 55.9341 177.052 55.6318C176.819 55.3348 176.699 54.9655 176.711 54.5885C176.699 54.3539 176.742 54.1198 176.836 53.9045C176.93 53.6892 177.072 53.4985 177.252 53.3474C177.612 53.0474 178.113 52.8978 178.754 52.8987H181.337V58.6265H180.394V56.3526H178.993L177.512 58.6265ZM177.628 54.5991C177.628 55.2451 178.097 55.5686 179.036 55.5695H180.394V53.6805H178.856C178.453 53.6805 178.148 53.7589 177.94 53.9155C177.836 53.9954 177.753 54.0994 177.699 54.2186C177.645 54.3377 177.62 54.4684 177.628 54.5991Z" fill="#0B1C2E"/>
<path d="M188.492 57.7291C188.603 57.3309 188.736 56.9391 188.89 56.5557L190.391 52.8987H191.61V58.6264H190.759V53.9049C190.637 54.2845 190.494 54.6827 190.329 55.0995L188.89 58.6264H188.123L186.686 55.0796C186.615 54.9124 186.553 54.7292 186.477 54.5314C186.401 54.3336 186.344 54.1239 186.275 53.9049V58.6264H185.426V52.8987H186.606L188.066 56.415C188.195 56.7415 188.339 57.1796 188.492 57.7291Z" fill="#0B1C2E"/>
<path d="M196.399 58.6272L196.214 57.8135H196.173C195.948 58.1202 195.654 58.3694 195.314 58.5409C194.972 58.679 194.604 58.7441 194.235 58.732C193.669 58.732 193.226 58.5842 192.908 58.2887C192.589 57.9931 192.429 57.5759 192.426 57.0369C192.426 55.8741 193.348 55.2653 195.192 55.2104L196.169 55.1732V54.8347C196.169 54.3993 196.075 54.0794 195.885 53.8724C195.695 53.6653 195.394 53.5617 194.977 53.5617C194.684 53.5591 194.392 53.6039 194.113 53.6945C193.853 53.7804 193.598 53.8815 193.35 53.9971L193.06 53.2936C193.362 53.1361 193.681 53.0149 194.011 52.9325C194.343 52.8465 194.685 52.8019 195.029 52.7998C195.726 52.7998 196.244 52.9529 196.583 53.2591C196.922 53.5653 197.092 54.052 197.093 54.7192V58.6219L196.399 58.6272ZM194.45 57.9754C194.981 57.9754 195.397 57.8338 195.698 57.5506C195.999 57.2674 196.15 56.8648 196.152 56.3427V55.8263L195.301 55.8622C194.64 55.8869 194.158 55.9914 193.854 56.1754C193.706 56.2652 193.586 56.3938 193.505 56.5473C193.425 56.7009 193.389 56.8734 193.4 57.0462C193.392 57.1743 193.413 57.3027 193.461 57.4218C193.508 57.541 193.582 57.648 193.676 57.7351C193.896 57.9075 194.172 57.993 194.45 57.9754Z" fill="#0B1C2E"/>
<path d="M200.571 58.7323C199.743 58.7323 199.097 58.4792 198.634 57.973C198.172 57.4668 197.941 56.7407 197.942 55.7947C197.942 54.8345 198.175 54.0947 198.642 53.5752C199.11 53.0557 199.773 52.7956 200.634 52.7947C200.913 52.7949 201.192 52.8238 201.466 52.881C201.701 52.9253 201.929 52.9998 202.146 53.1026L201.857 53.8858C201.461 53.7232 201.04 53.6311 200.612 53.6137C200.031 53.6137 199.602 53.7956 199.326 54.1593C199.05 54.523 198.911 55.0646 198.911 55.784C198.911 56.477 199.049 57.0079 199.326 57.377C199.603 57.746 200.013 57.9296 200.555 57.9278C201.072 57.9255 201.583 57.8114 202.051 57.5933V58.4283C201.589 58.6455 201.082 58.7496 200.571 58.7323Z" fill="#0B1C2E"/>
<path d="M207.186 57.834H209.68V52.8987H210.625V58.6264H202.808V52.8987H203.757V57.834H206.239V52.8987H207.19L207.186 57.834Z" fill="#0B1C2E"/>
<path d="M215.837 53.6912H213.952V58.6265H213.023V53.6912H211.164V52.8948H215.837V53.6912Z" fill="#0B1C2E"/>
<path d="M219.916 58.6272L219.732 57.8135H219.687C219.462 58.1202 219.167 58.3694 218.828 58.5409C218.485 58.679 218.118 58.7441 217.749 58.732C217.182 58.732 216.74 58.5842 216.421 58.2887C216.103 57.9931 215.942 57.5759 215.938 57.0369C215.938 55.8741 216.86 55.2653 218.704 55.2104L219.681 55.1732V54.8347C219.681 54.3993 219.587 54.0794 219.397 53.8724C219.207 53.6653 218.906 53.5617 218.489 53.5617C218.196 53.5592 217.904 53.604 217.625 53.6945C217.365 53.7804 217.11 53.8815 216.862 53.9971L216.573 53.2936C216.874 53.1361 217.193 53.0149 217.523 52.9325C217.856 52.8464 218.198 52.8018 218.542 52.7998C219.238 52.7998 219.757 52.9525 220.096 53.2591C220.434 53.5657 220.605 54.0555 220.605 54.7192V58.6219L219.916 58.6272ZM217.968 57.9754C218.499 57.9754 218.915 57.8338 219.215 57.5506C219.516 57.2674 219.668 56.8648 219.669 56.3427V55.8263L218.819 55.8622C218.158 55.8869 217.675 55.9914 217.372 56.1754C217.224 56.2654 217.103 56.3941 217.023 56.5475C216.943 56.701 216.907 56.8735 216.918 57.0462C216.91 57.1743 216.93 57.3027 216.978 57.4218C217.026 57.541 217.1 57.648 217.194 57.7351C217.414 57.9073 217.689 57.9928 217.968 57.9754Z" fill="#0B1C2E"/>
<path d="M221.477 55.1889C221.477 53.9137 221.67 52.9306 222.057 52.2394C222.245 51.9 222.506 51.6067 222.822 51.3805C223.137 51.1544 223.499 51.0012 223.881 50.9319C224.663 50.7753 225.535 50.6151 226.496 50.4514L226.659 51.2757L226.034 51.3753C225.221 51.508 224.569 51.6244 224.076 51.7244C223.844 51.7674 223.624 51.8574 223.428 51.9889C223.232 52.1204 223.066 52.2906 222.938 52.489C222.684 52.8872 222.54 53.4655 222.506 54.2239H222.573C222.785 53.9354 223.064 53.7034 223.386 53.5482C223.72 53.3806 224.089 53.2942 224.464 53.296C225.171 53.296 225.725 53.5217 226.123 53.973C226.521 54.4243 226.721 55.0575 226.721 55.8725C226.721 56.7805 226.489 57.484 226.023 57.9831C225.558 58.4822 224.912 58.7318 224.087 58.7318C223.267 58.7318 222.627 58.422 222.167 57.8026C221.707 57.1831 221.477 56.3119 221.477 55.1889ZM224.165 57.9539C225.204 57.9539 225.724 57.2902 225.725 55.9628C225.725 54.7026 225.254 54.073 224.312 54.0739C224.056 54.0737 223.803 54.1271 223.569 54.2305C223.332 54.3335 223.113 54.4723 222.918 54.642C222.731 54.8037 222.571 54.9941 222.443 55.2062C222.443 57.038 223.017 57.9539 224.165 57.9539Z" fill="#0B1C2E"/>
<path d="M228.55 52.8987V55.288H231.679V52.8987H232.624V58.6264H231.679V56.0752H228.55V58.6264H227.605V52.8987H228.55Z" fill="#0B1C2E"/>
<path d="M234.789 55.2508H236.285C237.034 55.2508 237.587 55.3867 237.945 55.6584C238.302 55.93 238.479 56.3353 238.476 56.8743C238.476 57.4548 238.287 57.8919 237.909 58.1857C237.531 58.4795 236.974 58.6264 236.239 58.6264H233.84V52.8987H234.785L234.789 55.2508ZM237.545 56.926C237.555 56.7954 237.532 56.6644 237.477 56.5453C237.422 56.4262 237.338 56.3229 237.233 56.2451C237.024 56.1008 236.67 56.0287 236.171 56.0287H234.796V57.8751H236.161C237.084 57.8751 237.546 57.5588 237.545 56.926ZM240.38 58.6264H239.435V52.8987H240.38V58.6264Z" fill="#0B1C2E"/>
<path d="M242.96 55.6995L240.969 52.8987H242.045L243.53 55.0584L245.001 52.8987H246.063L244.072 55.6995L246.172 58.6198H245.096L243.525 56.3353L241.932 58.6198H240.87L242.96 55.6995Z" fill="#0B1C2E"/>
<path d="M250.682 55.2617C251.77 55.2617 252.314 54.9697 252.315 54.3856C252.315 53.8431 251.879 53.5719 251.007 53.5719C250.748 53.5696 250.489 53.5959 250.235 53.6502C249.942 53.7202 249.656 53.8162 249.38 53.9369L249.048 53.1909C249.683 52.9187 250.368 52.7831 251.059 52.7927C251.735 52.7927 252.266 52.9255 252.652 53.1909C252.834 53.3113 252.982 53.476 253.082 53.6695C253.182 53.863 253.231 54.0789 253.224 54.2967C253.224 54.9471 252.864 55.3697 252.142 55.5644V55.6188C252.51 55.703 252.845 55.891 253.109 56.1604C253.319 56.4091 253.429 56.727 253.418 57.0524C253.425 57.2977 253.368 57.5406 253.253 57.7574C253.138 57.9742 252.969 58.1575 252.762 58.2895C252.32 58.5886 251.718 58.7382 250.956 58.7382C250.109 58.7382 249.454 58.6148 248.992 58.3679V57.5223C249.602 57.8142 250.269 57.9674 250.945 57.971C251.439 57.971 251.819 57.89 252.084 57.7254C252.207 57.6482 252.308 57.5411 252.378 57.4141C252.448 57.2871 252.485 57.1444 252.485 56.9993C252.485 56.8542 252.448 56.7115 252.378 56.5845C252.308 56.4575 252.207 56.3504 252.084 56.2732C251.813 56.1157 251.4 56.0365 250.844 56.0356H250.068V55.2683L250.682 55.2617Z" fill="#0B1C2E"/>
<path d="M257.76 58.6272L257.577 57.8135H257.534C257.31 58.1204 257.016 58.3697 256.677 58.5409C256.334 58.679 255.967 58.7441 255.598 58.732C255.031 58.732 254.589 58.5842 254.27 58.2887C253.952 57.9931 253.791 57.5759 253.787 57.0369C253.787 55.8741 254.71 55.2653 256.555 55.2104L257.53 55.1732V54.8347C257.53 54.3993 257.436 54.0794 257.248 53.8724C257.059 53.6653 256.755 53.5617 256.338 53.5617C256.045 53.5591 255.754 53.604 255.476 53.6945C255.215 53.7804 254.96 53.8815 254.711 53.9971L254.423 53.2936C254.724 53.1359 255.043 53.0146 255.373 52.9325C255.706 52.8464 256.048 52.8018 256.391 52.7998C257.089 52.7998 257.607 52.9529 257.946 53.2591C258.285 53.5653 258.455 54.052 258.456 54.7192V58.6219L257.76 58.6272ZM255.813 57.9754C256.344 57.9754 256.759 57.8338 257.059 57.5506C257.359 57.2674 257.51 56.8648 257.513 56.3427V55.8263L256.664 55.8622C256.002 55.8869 255.519 55.9914 255.217 56.1754C255.069 56.2652 254.948 56.3938 254.868 56.5473C254.788 56.7009 254.751 56.8734 254.763 57.0462C254.754 57.1744 254.775 57.3028 254.823 57.422C254.87 57.5412 254.944 57.6482 255.039 57.7351C255.259 57.9075 255.534 57.993 255.813 57.9754Z" fill="#0B1C2E"/>
<path d="M264.739 60.6149H263.826V58.6238H259.815V60.6149H258.912V57.834H259.375C259.859 57.1542 260.226 56.3988 260.462 55.5986C260.726 54.7225 260.864 53.8135 260.873 52.8987H263.902V57.834H264.742L264.739 60.6149ZM262.986 57.834V53.6394H261.705C261.648 54.4259 261.497 55.2027 261.255 55.953C261.058 56.6255 260.753 57.2609 260.35 57.834H262.986Z" fill="#0B1C2E"/>
<path d="M268.814 58.6272L268.631 57.8135H268.589C268.364 58.1205 268.07 58.3698 267.73 58.5409C267.387 58.679 267.02 58.7441 266.651 58.732C266.085 58.732 265.643 58.5842 265.323 58.2887C265.004 57.9931 264.843 57.5759 264.84 57.0369C264.84 55.8741 265.763 55.2653 267.608 55.2104L268.584 55.1732V54.8347C268.584 54.3993 268.489 54.0794 268.301 53.8724C268.112 53.6653 267.808 53.5617 267.391 53.5617C267.099 53.5591 266.807 53.604 266.529 53.6945C266.268 53.7802 266.013 53.8812 265.764 53.9971L265.476 53.2936C265.777 53.1356 266.096 53.0144 266.426 52.9325C266.759 52.8464 267.101 52.8018 267.445 52.7998C268.142 52.7998 268.66 52.9529 268.999 53.2591C269.338 53.5653 269.508 54.052 269.509 54.7192V58.6219L268.814 58.6272ZM266.867 57.9754C267.398 57.9754 267.814 57.8338 268.114 57.5506C268.414 57.2674 268.565 56.8648 268.568 56.3427V55.8263L267.718 55.8622C267.056 55.8869 266.574 55.9914 266.271 56.1754C266.123 56.2652 266.002 56.3938 265.922 56.5473C265.842 56.7009 265.806 56.8734 265.817 57.0462C265.809 57.1742 265.829 57.3025 265.877 57.4217C265.924 57.5408 265.998 57.6479 266.092 57.7351C266.312 57.9075 266.588 57.993 266.867 57.9754Z" fill="#0B1C2E"/>
<path d="M271.505 52.8987V54.9854C271.505 55.6393 271.874 55.9663 272.612 55.9663C272.923 55.9681 273.233 55.9197 273.528 55.823C273.866 55.7038 274.189 55.5471 274.492 55.3557V52.8987H275.437V58.6264H274.492V56.0752C274.169 56.292 273.818 56.4656 273.45 56.5915C273.116 56.6933 272.768 56.743 272.419 56.7389C271.843 56.7389 271.39 56.5893 271.058 56.2902C270.726 55.9911 270.56 55.5769 270.56 55.0478V52.8987H271.505Z" fill="#0B1C2E"/>
<path d="M29.6754 51.0732H28.3852C27.456 51.0732 26.0489 50.7028 25.2671 50.2117C24.5304 49.7484 22.6428 49.532 22.6428 49.532C22.1251 49.4285 18.5199 50.4068 16.9124 50.8594C16.8342 50.8812 16.7631 50.9232 16.7064 50.9813C16.6496 51.0393 16.6093 51.1114 16.5893 51.1901C16.5694 51.2688 16.5706 51.3513 16.5928 51.4294C16.6151 51.5075 16.6575 51.5783 16.7159 51.6346L17.4951 52.3926C18.1336 53.013 18.9801 53.3736 19.8699 53.4041L21.4335 53.4585C22.0535 53.4795 22.6608 53.6392 23.2109 53.9258L26.1047 55.4324C26.4231 55.5981 26.7918 55.6392 27.1389 55.5476C27.4859 55.4561 27.7864 55.2385 27.9816 54.9373L30.0444 51.7515C30.0874 51.6851 30.1117 51.6084 30.1148 51.5294C30.1178 51.4504 30.0994 51.372 30.0617 51.3026C30.0239 51.2331 29.9681 51.1751 29.9001 51.1348C29.8321 51.0944 29.7545 51.0731 29.6754 51.0732Z" fill="#0371FF"/>
<path d="M46.5731 26.3219C46.0873 26.464 44.5502 26.8091 43.8466 26.9644C43.7451 26.9853 43.6488 27.0261 43.5631 27.0844C43.4775 27.1428 43.4042 27.2175 43.3475 27.3042C42.8604 28.0688 41.8794 28.6767 41.3219 28.9781C41.301 28.9933 41.285 29.0143 41.2759 29.0385C41.2668 29.0627 41.265 29.089 41.2706 29.1143C41.2762 29.1395 41.2891 29.1625 41.3077 29.1806C41.3262 29.1986 41.3496 29.2108 41.375 29.2157L43.5758 29.3603C43.707 29.369 43.8384 29.349 43.961 29.3017C44.0836 29.2545 44.1945 29.1812 44.286 29.0869C45.0652 28.2865 47.0908 26.1706 46.5731 26.3219Z" fill="#0371FF"/>
<path d="M45.7484 20.2684C46.1407 20.2785 46.5253 20.1586 46.8422 19.9273C46.9026 19.882 46.9488 19.8206 46.9756 19.7501C47.0024 19.6796 47.0086 19.6029 46.9935 19.529C46.5621 17.5379 45.7484 16.7813 45.3303 16.5171C45.3111 16.5044 45.2883 16.4983 45.2654 16.4997C45.2425 16.5012 45.2206 16.5102 45.2033 16.5252C45.1859 16.5403 45.174 16.5607 45.1694 16.5832C45.1648 16.6057 45.1676 16.6291 45.1776 16.6499C45.6741 17.9083 45.5081 19.1826 45.3714 19.8104C45.3612 19.866 45.3632 19.9232 45.3773 19.9779C45.3915 20.0326 45.4174 20.0835 45.4533 20.1272C45.4892 20.1708 45.5343 20.206 45.5852 20.2304C45.6362 20.2548 45.6919 20.2678 45.7484 20.2684Z" fill="#0371FF"/>
<path d="M5.95299 43.2341C5.95299 43.2248 5.95299 43.1651 5.94502 43.0669C5.94502 43.0669 5.94502 43.0509 5.94502 43.043L5.95299 43.2341Z" fill="#0371FF"/>
<path d="M44.9766 11.0643H44.9129L42.8063 11.1148L43.3373 12.8311C43.5616 13.5519 44.1337 14.0484 44.7974 14.1147C44.8468 14.1201 44.8965 14.1227 44.9461 14.1227H46.0704C47.5412 14.1227 48.8089 15.3837 48.9124 17.043C48.9117 17.0554 48.9117 17.0678 48.9124 17.0801C49.1527 21.4141 44.5505 20.8858 43.8988 20.781C43.8752 20.7771 43.8536 20.7655 43.8375 20.7479C43.8214 20.7303 43.8116 20.7078 43.8099 20.6841C43.3771 16.4775 41.1338 14.9098 40.1077 14.4054C40.0655 14.3847 40.018 14.377 39.9714 14.3834C39.9247 14.3898 39.8811 14.41 39.846 14.4414C39.8109 14.4727 39.786 14.5139 39.7745 14.5595C39.7629 14.6051 39.7652 14.6532 39.7812 14.6975C40.3042 16.2041 40.4528 17.6669 40.0852 19.0779C40.0807 19.095 40.0713 19.1103 40.058 19.1219C40.0448 19.1335 40.0283 19.1408 40.0108 19.1429C39.4799 19.2 35.1857 19.4947 32.7233 19.6739C31.4459 19.7688 30.2362 20.2852 29.284 21.142C28.5436 21.8058 27.5838 22.1723 26.5894 22.1707H26.8456C25.1916 22.1707 23.4527 22.8769 22.355 24.1127L21.0408 25.78C20.332 26.5764 18.8772 27.2321 17.8086 27.2321H17.0865C16.1481 27.2344 15.246 27.5947 14.5644 28.2396C12.5574 30.1378 9.53486 33.8864 7.82782 36.447C5.9575 39.2518 5.92166 42.3088 5.9429 43.0482C5.96679 43.3853 6.28537 43.9681 6.67164 43.9774C6.80088 43.9575 6.93121 43.9456 7.0619 43.9415C11.5485 44.5043 10.3194 46.0415 15.4684 49.3918C17.8152 50.9184 20.8975 47.8826 22.7081 48.0512C24.4921 48.2158 26.9266 49.4449 28.3389 49.9759C28.5816 50.0694 28.842 50.1076 29.1013 50.0876C29.3606 50.0676 29.6121 49.99 29.8376 49.8604C30.3877 49.5369 30.7922 49.014 30.9672 48.4003L31.0707 48.0379C31.1686 47.6926 31.1881 47.3298 31.1278 46.976L30.9114 45.7136C30.8504 45.3565 30.6632 45.0419 30.5132 44.7141C28.8486 40.2473 26.9027 37.9363 22.8567 35.3492C22.6112 35.186 21.7085 34.1094 22.0019 34.1094H22.3789C22.4141 34.1094 22.4486 34.0994 22.4783 34.0804C22.508 34.0615 22.5316 34.0344 22.5464 34.0024C22.5612 33.9705 22.5665 33.9349 22.5618 33.9C22.557 33.8651 22.5424 33.8323 22.5196 33.8055L21.3581 33.1311C21.0926 32.8457 21.7656 32.7993 22.1067 32.9811C23.7156 33.3249 24.3899 33.7099 25.104 34.2541C25.4027 34.4134 26.1832 35.3041 25.8527 35.3784L25.104 35.0028C23.9558 34.6311 23.7872 35.1236 24.6846 35.7249C26.7792 37.1253 28.5194 39.6248 30.3473 42.4946C30.5517 42.8159 31.0906 42.3792 31.0906 41.9969V41.2469C31.0908 41.0688 31.0556 40.8924 30.9873 40.7279C30.919 40.5634 30.8187 40.4141 30.6924 40.2885C29.7128 39.3129 27.346 36.8837 28.4756 37.2607C29.884 37.7293 30.2862 39.808 32.4977 39.808C34.7091 39.808 36.1839 35.3837 38.7989 34.9138C41.2506 34.4745 41.5864 33.5625 41.6103 33.4537V33.4324C41.7205 32.4873 38.7259 30.2215 38.7259 29.2856C38.7259 28.3498 44.8412 26.2007 45.0231 26.137H45.0311C45.2209 26.1012 51.7371 24.8242 52.2654 17.558C52.7725 10.6489 46.0903 11.0391 44.9766 11.0643ZM20.3347 30.5307C15.4631 29.4688 11.737 34.5793 9.9676 37.6748C9.8707 37.8447 9.63973 37.6987 9.71539 37.5142C13.5556 28.1534 18.3435 29.1821 20.4408 30.2294C20.4767 30.2464 20.505 30.2761 20.5203 30.3128C20.5355 30.3495 20.5367 30.3905 20.5235 30.4279C20.5103 30.4654 20.4837 30.4966 20.4488 30.5156C20.4139 30.5346 20.3733 30.54 20.3347 30.5307ZM24.5093 38.5217C26.4912 40.1637 29.6862 43.2871 29.8455 46.4477C29.8496 46.5066 29.8386 46.5657 29.8135 46.6192C29.7883 46.6727 29.7499 46.7188 29.7019 46.7533C29.6538 46.7877 29.5978 46.8093 29.5391 46.816C29.4803 46.8227 29.4209 46.8142 29.3663 46.7915C29.2946 46.7562 29.2328 46.7036 29.1865 46.6385C29.1401 46.5734 29.1107 46.4978 29.1009 46.4185C28.9761 45.476 28.254 43.2791 24.3222 39.0726C24.2001 38.9412 24.374 38.4049 24.5093 38.5177V38.5217ZM29.4486 26.814C28.2433 27.1883 28.1756 27.6689 27.4363 28.2742C26.8071 28.7905 25.3284 28.5702 24.4841 28.3896C24.4231 28.3764 24.431 28.2742 24.4934 28.2742C25.1651 28.2742 26.2483 28.1414 27.0845 27.4326C27.7854 26.8392 28.7053 26.6361 29.4048 26.5764C29.4363 26.5706 29.4689 26.5775 29.4953 26.5957C29.5216 26.6139 29.5397 26.6418 29.5455 26.6733C29.5513 26.7048 29.5444 26.7373 29.5262 26.7637C29.5081 26.7901 29.4801 26.8082 29.4486 26.814ZM30.2106 24.2588C30.1853 24.3809 30.1747 24.5242 30.0632 24.5707C30.054 24.5726 30.0445 24.5726 30.0353 24.5707L29.803 24.5614C29.762 24.5717 29.7192 24.5721 29.678 24.5624C29.6368 24.5528 29.5985 24.5335 29.5663 24.5061C29.5341 24.4787 29.5089 24.444 29.4929 24.4049C29.4768 24.3658 29.4703 24.3234 29.4739 24.2813C29.5349 22.9632 30.3035 20.0788 33.3565 21.0279C33.3664 21.0307 33.3755 21.036 33.383 21.0431C33.3904 21.0503 33.396 21.0591 33.3993 21.0689C33.4025 21.0787 33.4034 21.0891 33.4017 21.0993C33.4 21.1095 33.3959 21.1192 33.3897 21.1274C33.3021 21.2482 33.1242 21.5044 32.957 21.7725C32.7778 22.0672 30.9605 20.542 30.2106 24.2534V24.2588ZM31.2035 24.1645C31.2035 24.1645 31.4079 23.1026 32.2123 22.6552C33.0167 22.2079 33.3685 23.9641 33.2171 24.1645C33.0658 24.3649 32.2428 24.6676 32.2269 23.6614C32.211 22.6552 31.0853 24.5455 31.2035 24.1592V24.1645ZM34.0627 26.8406C33.4819 26.2877 32.7115 25.978 31.9096 25.9751C30.4256 25.9751 33.91 24.9039 34.3348 26.6773C34.3418 26.7114 34.3379 26.7468 34.3237 26.7785C34.3095 26.8102 34.2857 26.8367 34.2556 26.8542C34.2255 26.8716 34.1907 26.8792 34.1561 26.8758C34.1215 26.8724 34.0888 26.8582 34.0627 26.8352V26.8406ZM35.479 26.4158C35.2494 26.4251 35.9901 25.63 34.7822 23.5446C34.7677 23.5208 34.7617 23.4929 34.7652 23.4653C34.7686 23.4377 34.7812 23.4121 34.8011 23.3926C34.8209 23.373 34.8467 23.3608 34.8743 23.3578C34.902 23.3548 34.9299 23.3612 34.9534 23.376C35.5866 23.7743 36.7507 24.2388 38.5055 23.907C38.5263 23.9026 38.5479 23.9035 38.5682 23.9099C38.5884 23.9162 38.6068 23.9277 38.6213 23.9432C38.6358 23.9587 38.6462 23.9776 38.6512 23.9983C38.6563 24.0189 38.6559 24.0405 38.6502 24.061C38.5118 24.5478 38.2727 25.0002 37.9485 25.3889C37.6242 25.7776 37.2221 26.094 36.768 26.3176C36.7473 26.328 36.7242 26.3325 36.7011 26.3305C36.6781 26.3286 36.656 26.3202 36.6374 26.3065C36.6188 26.2927 36.6044 26.274 36.5958 26.2525C36.5872 26.2311 36.5848 26.2076 36.5888 26.1848C36.6556 25.865 36.6378 25.5333 36.537 25.2225C36.3339 24.7127 35.7313 26.4025 35.479 26.4158ZM39.3498 33.2639C40.6679 34.2846 36.3777 33.4338 35.8693 29.0467C35.8634 28.9894 35.8695 28.9315 35.8873 28.8768C35.9052 28.822 35.9343 28.7716 35.9728 28.7289C36.0114 28.6861 36.0584 28.6518 36.111 28.6284C36.1636 28.6049 36.2206 28.5928 36.2781 28.5927H37.6387C37.7455 28.5927 37.848 28.6343 37.9246 28.7086C38.0012 28.783 38.0458 28.8843 38.0489 28.991C38.0794 29.9533 38.2653 32.4183 39.3498 33.2599V33.2639ZM42.1878 26.368C42.1745 26.3986 42.1529 26.4248 42.1254 26.4437C41.8095 26.6574 39.736 27.9649 39.2051 25.8994L39.1971 25.845C39.1507 23.5353 41.4949 21.3106 40.6573 15.8815C40.6501 15.8414 40.6561 15.8001 40.6743 15.7636C40.6924 15.7272 40.7218 15.6975 40.7582 15.6791C40.7945 15.6606 40.8357 15.6543 40.8759 15.6611C40.9161 15.668 40.953 15.6875 40.9812 15.7169C42.1081 16.897 44.9315 20.6482 42.1878 26.364V26.368Z" fill="#0371FF"/>
<path d="M30.5304 0C13.6723 0 0 13.6723 0 30.5304C0 47.3884 13.6723 61.0607 30.5304 61.0607C47.3884 61.0607 61.0607 47.3884 61.0607 30.5304C61.0607 13.6723 47.3884 0 30.5304 0ZM30.5304 59.7333C14.4024 59.7333 1.32741 46.6584 1.32741 30.5304C1.32741 14.4024 14.4024 1.32741 30.5304 1.32741C46.6584 1.32741 59.7333 14.4024 59.7333 30.5304C59.7333 46.6584 46.6584 59.7333 30.5304 59.7333Z" fill="#0371FF"/>
<path d="M41.2682 8.25376C41.1561 8.5176 40.9477 8.72883 40.6854 8.84446C40.5782 8.88942 40.4611 8.90588 40.3456 8.89224C40.2435 8.88154 40.1436 8.85512 40.0496 8.81392C39.8943 8.74755 39.6514 8.64136 39.4961 8.58163L39.3819 8.5365L39.354 8.52588C36.5475 7.40559 33.5527 6.83204 30.5308 6.83609C17.5447 6.83609 6.98387 17.2244 6.71043 30.1453C6.71043 30.1971 6.71043 30.2502 6.71043 30.3019C6.71043 30.4214 6.71043 30.5422 6.71043 30.663C6.71043 30.728 6.71043 30.8594 6.71043 30.9736C6.71361 31.1457 6.64984 31.3122 6.53255 31.4382C6.42647 31.5504 6.29848 31.6397 6.1565 31.7004C6.01453 31.7612 5.86159 31.7921 5.70717 31.7914C5.55275 31.7906 5.40012 31.7582 5.25874 31.6961C5.11736 31.6339 4.99024 31.5435 4.88524 31.4302C4.7785 31.3129 4.71934 31.1601 4.71931 31.0015C4.71931 30.8886 4.71931 30.7758 4.71931 30.663C4.71931 30.4825 4.71931 30.3006 4.71931 30.1214C5.00603 16.112 16.4523 4.84499 30.5308 4.84499C33.8191 4.84103 37.0777 5.46689 40.1306 6.68875C40.3244 6.76751 40.5168 6.8476 40.708 6.92901C40.9547 7.03107 41.1518 7.22536 41.2574 7.47054C41.363 7.71573 41.3688 7.99245 41.2735 8.24181L41.2682 8.25376Z" fill="#0B1C2E"/>
<path d="M56.3483 30.6636C56.3483 43.9031 46.3821 54.8224 33.5421 56.3077L33.1359 56.3515C33.0258 56.3647 32.9142 56.3509 32.8106 56.3113C32.707 56.2718 32.6146 56.2077 32.5412 56.1245C32.4473 56.0121 32.3861 55.8759 32.3646 55.7309C32.343 55.5859 32.3619 55.4378 32.4191 55.3029C32.4712 55.1911 32.5522 55.0953 32.6537 55.0253C32.7552 54.9553 32.8736 54.9137 32.9965 54.9047L33.3948 54.8609C36.8728 54.4467 40.2208 53.2879 43.2107 51.4633C46.2006 49.6388 48.7622 47.1914 50.7211 44.2877C52.68 41.3841 53.9902 38.0924 54.5624 34.6368C55.1347 31.1813 54.9555 27.643 54.0372 24.2629C54.0027 24.1301 53.9656 23.9974 53.9284 23.8713C53.8878 23.7411 53.8862 23.6019 53.9237 23.4707C53.9612 23.3396 54.0362 23.2223 54.1395 23.1332C54.2235 23.0637 54.3212 23.0126 54.4262 22.9832C54.5815 22.9381 54.7469 22.9418 54.9001 22.9939C55.0036 23.0308 55.0966 23.0923 55.1712 23.1729C55.2459 23.2536 55.2999 23.3511 55.3288 23.4571C55.366 23.5899 55.4018 23.7133 55.4363 23.8421C56.0435 26.065 56.3502 28.3592 56.3483 30.6636Z" fill="#0B1C2E"/>
</svg>
