<svg width="24" height="24" viewBox="0 0 24 24" fill="none" xmlns="http://www.w3.org/2000/svg">
<path d="M2.56446 3.25959C2.71943 3.12567 2.9081 3.03673 3.11002 3.00242C3.31194 2.96811 3.5194 2.98974 3.7099 3.06497L21.0121 9.86231C21.2383 9.9512 21.4296 10.1109 21.5574 10.3176C21.6852 10.5242 21.7427 10.7667 21.7212 11.0088C21.6997 11.2508 21.6004 11.4794 21.4382 11.6603C21.276 11.8412 21.0596 11.9648 20.8213 12.0125L16.125 12.9518V18.7486C16.1274 18.9716 16.0623 19.1901 15.9384 19.3756C15.8145 19.561 15.6375 19.7047 15.4305 19.7879C15.2919 19.846 15.1432 19.8761 14.9929 19.8765C14.846 19.876 14.7007 19.8464 14.5653 19.7894C14.43 19.7323 14.3073 19.6489 14.2045 19.5441L11.5236 16.8632L7.56799 20.3441C7.36417 20.5252 7.1011 20.6253 6.82849 20.6256C6.70998 20.6255 6.59221 20.6068 6.47946 20.5702C6.29354 20.5113 6.12632 20.4046 5.99451 20.2608C5.86269 20.117 5.77089 19.9412 5.72824 19.7509L2.20193 4.3634C2.1559 4.16385 2.16536 3.95551 2.22926 3.76094C2.29316 3.56637 2.40908 3.393 2.56446 3.25959ZM20.9742 10.9424C20.9835 10.8614 20.9653 10.7797 20.9224 10.7103C20.8795 10.641 20.8144 10.5882 20.7378 10.5604L4.87765 4.32947L15.837 12.2446L20.6742 11.2771C20.7546 11.2632 20.8279 11.2226 20.8824 11.1619C20.9368 11.1011 20.9692 11.0238 20.9742 10.9424ZM14.7349 19.0138C14.7873 19.0662 14.8542 19.1019 14.9269 19.1164C14.9997 19.1309 15.075 19.1234 15.1436 19.095C15.2121 19.0667 15.2706 19.0186 15.3118 18.9569C15.353 18.8953 15.375 18.8228 15.375 18.7486L15.375 13.4738L12.0878 16.3667L14.7349 19.0138ZM2.93299 4.19587L6.4594 19.5833C6.4739 19.6467 6.50461 19.7051 6.5485 19.753C6.5924 19.8009 6.64798 19.8365 6.7098 19.8565C6.77162 19.8764 6.83756 19.88 6.90116 19.8668C6.96477 19.8536 7.02384 19.8241 7.07262 19.7812L15.1496 12.6732L2.99365 3.894C2.96166 3.93659 2.93961 3.98579 2.92912 4.03801C2.91862 4.09023 2.91994 4.14414 2.93299 4.19578V4.19587Z" fill="white"/>
</svg>
