<svg width="192" height="192" viewBox="0 0 192 192" fill="none" xmlns="http://www.w3.org/2000/svg">
<path d="M192 0V66.4615L125.538 66.4615L125.538 0L192 0ZM110.769 0V14.7692L96 14.7692V0L110.769 0ZM96 14.7692V29.5385H110.769L110.769 59.0769L96 59.0769L96 44.3077H81.2308V14.7692L96 14.7692ZM96 59.0769V81.2308L162.462 81.2308V96H177.231V110.769H147.692V96L132.923 96V110.769H96V96H81.2308V110.769H59.0769V96H44.3077V81.2308H81.2308V59.0769H96ZM44.3077 96V110.769L0 110.769V96H14.7692V81.2308L29.5385 81.2308V96H44.3077ZM177.231 96V81.2308H192V96H177.231ZM66.4615 0L66.4615 66.4615L0 66.4615V0L66.4615 0ZM177.231 14.7692L140.308 14.7692V51.6923L177.231 51.6923V14.7692ZM51.6923 14.7692L14.7692 14.7692V51.6923L51.6923 51.6923V14.7692ZM169.846 22.1538V44.3077L147.692 44.3077V22.1538L169.846 22.1538ZM44.3077 22.1538V44.3077H22.1538V22.1538L44.3077 22.1538ZM110.769 118.154V132.923H96V118.154H110.769ZM96 132.923V147.692H110.769L110.769 177.231H96L96 162.462L66.4615 162.462V147.692H51.6923V132.923H36.9231V147.692H51.6923V162.462H66.4615L66.4615 192H51.6923V177.231H36.9231V162.462H29.5385V177.231H36.9231V192H22.1538V177.231H14.7692V162.462H0V132.923H14.7692V118.154L66.4615 118.154V132.923L96 132.923ZM14.7692 177.231V192H0V177.231H14.7692ZM96 177.231V192H81.2308V177.231H96ZM192 125.538V192H125.538L125.538 125.538L192 125.538ZM177.231 140.308H140.308L140.308 177.231H177.231V140.308ZM169.846 147.692V169.846H147.692V147.692H169.846Z" fill="#0371FF"/>
</svg>
