<svg width="26" height="24" viewBox="0 0 26 24" fill="none" xmlns="http://www.w3.org/2000/svg">
<path d="M0.0769043 4.92857C0.0769043 4.01786 0.567764 3.52679 1.54948 3.45536L5.33249 3.48214C5.58638 3.48214 5.75564 3.61607 5.84028 3.88393C6.22958 5.22321 6.66543 6.37946 7.14783 7.35268C7.63022 8.32589 8.26072 9.44643 9.03933 10.7143C9.10703 10.875 9.21705 10.9554 9.36939 10.9554C9.48787 10.9554 9.58097 10.8929 9.64867 10.7679L9.72484 10.4732L9.75023 5.83929C9.75023 5.51786 9.67829 5.30357 9.53442 5.19643C9.39055 5.08929 9.12396 5.00893 8.73466 4.95536C8.42999 4.90179 8.27765 4.70536 8.27765 4.36607C8.27765 4.29464 8.28611 4.24107 8.30304 4.20536C8.65849 3.04464 9.67406 2.46429 11.3498 2.46429L12.7716 2.4375C13.4148 2.4375 13.9479 2.60714 14.3711 2.94643C14.7942 3.28571 15.0058 3.82143 15.0058 4.55357L15.0058 10.6339C15.1243 10.7232 15.2343 10.7679 15.3359 10.7679C15.5898 10.7679 15.8098 10.6071 15.996 10.2857C17.8579 7.53571 18.865 5.69643 19.0173 4.76786C19.0173 4.75 19.0343 4.70536 19.0681 4.63393C19.1866 4.36607 19.3812 4.13393 19.6521 3.9375C19.9229 3.74107 20.1598 3.60714 20.363 3.53571C20.4307 3.5 20.5068 3.48214 20.5915 3.48214L24.5268 3.48214L24.7807 3.50893C25.1192 3.50893 25.3816 3.67857 25.5678 4.01786C25.6355 4.125 25.682 4.24107 25.7074 4.36607C25.7328 4.49107 25.7497 4.61607 25.7582 4.74107C25.7666 4.86607 25.7709 4.9375 25.7709 4.95536V5.14286C25.6524 5.875 25.352 6.65625 24.8696 7.48661C24.3872 8.31696 23.7736 9.21429 23.0288 10.1786C22.2841 11.1429 21.8186 11.7768 21.6324 12.0804C21.4801 12.2946 21.4039 12.4911 21.4039 12.6696C21.4039 12.8125 21.4716 12.9732 21.607 13.1518L25.3139 18.0804C25.517 18.3661 25.6185 18.6786 25.6185 19.0179C25.6185 19.4286 25.4662 19.7679 25.1615 20.0357C24.8569 20.3036 24.493 20.4554 24.0698 20.4911L23.6382 20.5179H19.779C19.7621 20.5179 19.7282 20.5223 19.6774 20.5313C19.6267 20.5402 19.5928 20.5446 19.5759 20.5446C19.2035 20.5446 18.8565 20.375 18.5349 20.0357C18.4164 19.8929 17.6209 18.8393 16.1483 16.875C16.0637 16.75 15.9452 16.6339 15.7929 16.5268C15.7252 16.8125 15.6363 17.2232 15.5263 17.7589C15.4163 18.2946 15.3359 18.6786 15.2851 18.9107L15.2089 19.3661C15.0397 19.9911 14.6842 20.3661 14.1426 20.4911L13.7871 20.5179H11.299C9.8941 20.5179 8.49346 19.8393 7.09705 18.4821C5.70063 17.125 4.44386 15.3705 3.32674 13.2188C2.20961 11.067 1.16864 8.5625 0.203851 5.70536C0.11922 5.47321 0.0769043 5.21429 0.0769043 4.92857ZM15.3359 11.8661C14.9804 11.8661 14.6588 11.7634 14.3711 11.558C14.0833 11.3527 13.9395 11.0714 13.9395 10.7143L13.9395 4.55357C13.9395 4.19643 13.8548 3.94196 13.6856 3.79018C13.5163 3.63839 13.2201 3.5625 12.7969 3.5625L11.3498 3.61607C10.6219 3.61607 10.0718 3.75 9.69945 4.01786C10.4442 4.39286 10.8166 5 10.8166 5.83929L10.8166 10.5536C10.7827 11 10.6135 11.3705 10.3088 11.6652C10.0041 11.9598 9.6656 12.1071 9.29322 12.1071C8.78543 12.1071 8.39613 11.8482 8.12531 11.3304C6.80507 9.22321 5.82335 7.22321 5.18015 5.33036L4.95165 4.63393L1.57487 4.60714C1.35483 4.60714 1.23212 4.62054 1.20673 4.64732C1.18134 4.67411 1.16864 4.75 1.16864 4.875C1.16864 5.03571 1.18557 5.20536 1.21942 5.38393L1.7526 6.88393C3.1744 10.7589 4.71891 13.8125 6.38615 16.0446C8.05338 18.2768 9.69099 19.3929 11.299 19.3929L13.8379 19.3929C13.9395 19.3929 14.0156 19.3616 14.0664 19.2991C14.1172 19.2366 14.1595 19.1161 14.1934 18.9375L14.2441 18.6696L14.7265 16.3125C14.8619 15.9911 14.9804 15.7768 15.082 15.6696C15.2682 15.4732 15.4882 15.375 15.7421 15.375C16.1483 15.375 16.563 15.6339 16.9862 16.1518L19.1443 19.0446C19.2797 19.2768 19.4236 19.3929 19.5759 19.3929H23.7651C24.2729 19.3929 24.5268 19.2589 24.5268 18.9911C24.5268 18.9018 24.5014 18.8125 24.4506 18.7232L20.7692 13.875C20.4814 13.5 20.3376 13.0982 20.3376 12.6696C20.3376 12.2411 20.473 11.8304 20.7438 11.4375C20.9638 11.0804 21.3912 10.4866 22.026 9.65625C22.6607 8.82589 23.215 8.04911 23.689 7.32589C24.1629 6.60268 24.476 5.94643 24.6284 5.35714L24.7045 5.00893C24.6876 4.97321 24.6791 4.91518 24.6791 4.83482C24.6791 4.75446 24.6707 4.6875 24.6537 4.63393L20.6676 4.63393C20.4137 4.74107 20.2106 4.90179 20.0583 5.11607L19.9059 5.625C19.4828 6.85714 18.3741 8.75893 16.58 11.3304C16.2245 11.6875 15.8098 11.8661 15.3359 11.8661Z" fill="white"/>
</svg>
