<svg width="20" height="20" viewBox="0 0 20 20" fill="none" xmlns="http://www.w3.org/2000/svg">
<path d="M13.6671 5.3339C13.6671 7.35995 12.0265 9.00057 10.0004 9.00057C7.9744 9.00057 6.33378 7.35995 6.33378 5.3339C6.33378 3.30785 7.9744 1.66724 10.0004 1.66724C12.0265 1.66724 13.6671 3.30785 13.6671 5.3339ZM1.66711 17.0006C1.66711 16.592 1.86383 16.1602 2.36563 15.697C2.87422 15.2276 3.62658 14.7967 4.53753 14.4318C6.36103 13.7013 8.56795 13.3339 10.0004 13.3339C11.4329 13.3339 13.6399 13.7013 15.4634 14.4318C16.3743 14.7967 17.1267 15.2276 17.6353 15.697C18.1371 16.1602 18.3338 16.592 18.3338 17.0006V18.3339H1.66711V17.0006Z" stroke="#0371FF" stroke-width="2"/>
</svg>
